<?xml version="1.0" standalone="no"?>
<!DOCTYPE svg PUBLIC "-//W3C//DTD SVG 1.1//EN" "http://www.w3.org/Graphics/SVG/1.1/DTD/svg11.dtd" >
<svg xmlns="http://www.w3.org/2000/svg" xmlns:xlink="http://www.w3.org/1999/xlink" version="1.1">
<metadata></metadata>
<defs>
<font id="cartoon_80regular" horiz-adv-x="1014" >
<font-face units-per-em="2048" ascent="1638" descent="-410" />
<missing-glyph horiz-adv-x="508" />
<glyph horiz-adv-x="0" />
<glyph unicode="&#xd;" horiz-adv-x="508" />
<glyph unicode=" "  horiz-adv-x="508" />
<glyph unicode="&#x09;" horiz-adv-x="508" />
<glyph unicode="&#xa0;" horiz-adv-x="508" />
<glyph unicode="!" horiz-adv-x="672" d="M0 1317q39 117 122 117h56q94 0 133 -122q0 -6 -5 -6q78 -209 78 -444q5 0 5 -6t-5 -6l16 -111h-5q16 -106 50 -394v-12q0 -42 -67 -55h-33q-39 64 -117 322q-106 326 -211 623q-17 74 -17 94zM333 111v6q16 94 84 94h11q84 0 100 -105v-17q-16 -89 -72 -89h-17 q-84 0 -106 111z" />
<glyph unicode="&#x22;" horiz-adv-x="672" d="M142 1395v54q0 84 52 84l24 18q4 0 4 -6l20 6h8q36 0 36 -90v-42q0 -14 -4 -24q0 -6 4 -6q0 -12 -4 -12q4 -100 4 -151v-108q-6 -24 -28 -24h-16q-41 0 -80 78q-20 175 -20 223zM326 1443q16 35 20 108q35 36 88 36h16q72 -15 72 -108q0 -17 -32 -102q0 -8 24 -43v-12 q0 -27 -12 -108q8 -31 8 -48q-12 -42 -80 -42q0 -6 -36 -6q-48 0 -48 156l4 36v43q0 68 -24 90z" />
<glyph unicode="#" horiz-adv-x="1336" d="M317 248v97q0 148 176 211l-8 97q-56 -33 -64 -33h-16q-68 0 -88 195l128 162l-8 81v16q0 16 8 16l-8 33v16q58 162 64 162h16q67 0 112 -259q137 38 137 129q0 181 72 276h48q56 -70 56 -227v-32q42 16 48 16q78 0 120 -146q-19 -162 -152 -162v-65q2 -113 16 -113 q72 32 104 32h40q96 0 96 -146q0 -178 -216 -178v-32q0 -37 8 -65q-27 -211 -80 -211l-128 243q-113 -43 -113 -97l8 -32v-195q0 -22 -40 -81h-32q-25 18 -104 308q-70 -65 -104 -65h-48q-41 0 -48 49zM660 709l8 -114l137 49q0 115 -16 178l-129 -81v-32z" />
<glyph unicode="$" d="M0 1206v35q0 110 156 139q59 60 182 86q0 9 9 9h9q52 0 69 -260q95 0 191 -157q17 0 17 -43v-9q0 -52 -34 -52q-137 35 -157 35q-138 -41 -138 -104q16 -52 156 -52q9 0 26 9q173 0 225 -78q44 0 79 -113q0 -97 -18 -174q0 -63 139 -260v-26q0 -63 -156 -87 q-49 -34 -139 -78l-35 9q-17 0 -104 -35q-67 34 -87 69v9q26 37 26 69q0 11 -8 87l8 44q-197 113 -208 191h9l-9 17q15 95 87 95l139 -112h8q174 59 174 138q0 52 -130 61q-110 -17 -139 -17q-278 135 -278 251v148l44 61q0 40 -87 60z" />
<glyph unicode="%" horiz-adv-x="1610" d="M0 937q0 117 267 167h73q152 0 182 -147q-53 -201 -267 -201q-255 57 -255 181zM291 107v34l425 903q268 395 401 395h37q16 0 121 -67q-166 -289 -389 -877q-182 -242 -291 -475q0 -10 -36 -20h-37q-226 91 -231 107zM1093 609q38 181 291 181h25q137 0 194 -174v-20 q0 -114 -219 -114q-210 0 -291 127z" />
<glyph unicode="&#x26;" horiz-adv-x="1683" d="M0 1016v15q0 261 150 309q84 57 333 90q326 0 376 -294q0 -18 10 -60l-32 -143q40 20 279 113h107q207 0 290 -188q22 -90 22 -248v-38l-11 -45q11 -13 11 -38q-25 -22 -54 -98q182 -125 182 -233v-7q0 -113 -204 -113l-279 143q-160 -124 -482 -181q-502 0 -612 256 l-11 90q0 90 150 361q-193 78 -193 189q-18 0 -21 52l10 53q-21 0 -21 15zM333 1159q0 -102 128 -158q76 72 76 166q0 82 -76 82q-105 0 -128 -90zM558 444q0 -115 215 -143q110 0 118 53q-299 158 -322 158v-8q-11 -13 -11 -30v-30zM773 790q327 -241 375 -241l43 98 q0 12 -32 83l32 38v7q0 83 -107 83l-204 -30q-9 0 -64 45q-43 -70 -43 -83zM901 331h22v8h-22v-8z" />
<glyph unicode="'" horiz-adv-x="346" d="M101 1500q0 37 20.5 57t59.5 20t60.5 -19.5t21.5 -56.5q0 -8 -4 -34l-62 -359h-30l-62 359q-4 23 -4 33z" />
<glyph unicode="(" horiz-adv-x="758" d="M317 599q0 423 84 694q28 242 88 242q0 30 28 60q96 -42 96 -75v-61q0 -83 -52 -362q-24 -240 -24 -453v-91q0 -15 -4 -15q17 -528 48 -528q33 0 40 -166q32 -35 32 -91q-17 -226 -116 -226q-31 0 -104 151q0 75 -56 106l-56 468q0 188 -4 347z" />
<glyph unicode=")" horiz-adv-x="758" d="M151 -193q104 231 104 628v39q0 306 -68 877q-24 0 -24 104q40 71 40 92q15 39 28 39h16q81 0 188 -523q40 -385 40 -419v-91q0 -443 -72 -523l4 -66q-102 -366 -184 -366q-55 79 -72 196v13z" />
<glyph unicode="*" horiz-adv-x="1024" d="M242 1298q0 52 104 60h60q0 23 -50 160q5 66 50 66h30q19 -20 65 -146q13 0 79 126q24 27 60 27q25 -10 25 -47v-7q0 -49 -70 -172q28 -18 189 -33l10 -20v-40q-17 -40 -45 -40h-169v-7q65 -129 65 -166q0 -35 -20 -46h-20q-68 0 -104 153l-10 6q-97 -151 -120 -152h-5 q-44 14 -44 33q0 62 59 166q-134 17 -134 46q-5 11 -5 33z" />
<glyph unicode="+" d="M83 755q0 137 288 137q-11 124 -11 187q0 87 53 124h43q44 0 117 -12q18 12 53 12q32 -48 32 -112v-211l75 -13h117q85 0 85 -136q0 -103 -245 -150q-18 13 -53 13q-21 -46 -21 -100v-149q0 -174 -75 -174q-234 0 -234 286q21 88 21 137h-21q-194 0 -224 161z" />
<glyph unicode="-" horiz-adv-x="670" d="M116 437v83q0 29 41 29h356q41 0 41 -29v-83q0 -28 -40 -28h-358q-40 0 -40 28z" />
<glyph unicode="." horiz-adv-x="557" d="M133 99q21 128 104 128h4q79 0 116 -60q4 0 4 -4v-32l-32 -92q-53 -44 -100 -44q-83 0 -96 104zM177 111h4q6 0 12 12v28h-4q-12 -29 -12 -36v-4zM189 67q1 -8 8 -8q28 0 28 8q-3 12 -16 16q0 -9 -20 -12v-4zM245 47h8q8 0 8 8h-8q-8 -1 -8 -8z" />
<glyph unicode="/" horiz-adv-x="569" d="M13 -50l541 1484h80l-541 -1484h-80z" />
<glyph unicode="0" d="M0 1571q0 46 65 99q0 27 -18 98q14 126 83 126q68 0 75 -154q0 -188 -158 -281h-10q-37 59 -37 112zM19 870q0 404 251 603q50 14 84 14h9q9 0 9 -14l19 14q325 0 409 -196q93 -600 93 -702q0 -420 -186 -477q-196 -112 -298 -112q-278 0 -381 673q-9 88 -9 197zM102 912 h10q43 62 167 224v28q-45 -46 -158 -126q-9 -102 -19 -126zM112 716h9q140 136 140 224v28q-143 -190 -149 -252zM130 603q0 -26 19 -112l112 112q-10 141 -28 141q-12 -75 -103 -141zM186 393q24 -90 47 -98h9q0 28 56 112q0 84 -37 84q-75 -49 -75 -98zM195 1221h10 q48 48 102 70q28 70 28 98q-115 -97 -140 -168zM279 210q22 0 130 -70v28q-21 68 -74 127h-37q0 -22 -19 -56v-29zM493 758q0 -295 121 -295q37 126 37 281q-27 420 -149 420v-14q-9 -143 -9 -224v-168zM875 309q53 112 65 112h9v-211l-9 -28q-65 50 -65 127z" />
<glyph unicode="1" d="M104 0v121q48 121 85 121h11q34 0 34 -44q-4 -47 -119 -231zM149 792q0 199 91 231q66 106 192 198q37 61 56 165l34 22q91 -22 91 -165q10 -852 73 -1001q-15 -110 -56 -110l-294 -132q-34 64 -34 198l22 418q-5 21 -5 33h-17q-7 0 -62 -22h-12q-79 0 -79 165zM206 847 h11q23 44 34 44l-6 77q-16 0 -39 -121zM228 737q65 0 136 110l-28 -11h-6l-56 11l-46 -88v-22zM279 1441q0 101 79 121q31 -86 34 -176q-16 -165 -62 -165h-11q-23 18 -23 77l6 55q-15 0 -23 88zM353 165q5 -19 5 -44h12q51 0 51 99q17 40 17 110v55q-85 -116 -85 -220z M364 374h17q73 96 73 110v88h-5q-85 -104 -85 -198zM364 671l90 121h12v33l5 55q-84 -42 -84 -165q-23 -16 -23 -33v-11zM375 572q74 71 85 121v22q-85 -117 -85 -132v-11zM635 836q19 297 96 297q57 -14 57 -44q0 -40 -62 -143q-17 -143 -68 -143h-6q-8 0 -17 33z" />
<glyph unicode="2" d="M83 170q0 109 195 437l80 169q-232 0 -232 195v36q0 363 305 437h65q195 0 246 -304q14 -54 14 -157l-7 -25l7 -24q0 -97 -130 -497h43q138 0 290 -158v-158q0 -21 -36 -36q-99 12 -123 12q-266 0 -384 -97q-79 12 -138 12h-21q-17 0 -29 -12l-15 12l-14 -12 q-116 0 -116 170zM119 1626q27 36 51 36q61 0 80 -158q0 -63 -44 -109h-22q-65 107 -65 231zM155 218q0 -109 58 -109h22q53 0 159 231v12q-192 -122 -239 -122v-12zM213 1055q64 0 138 195q51 61 51 72h-8q-116 -54 -116 -85h29v-36q-69 -85 -94 -85v-61zM228 352 q239 130 239 158q58 103 58 133l-15 12q-113 -133 -210 -133q0 -16 -72 -158v-12zM228 946q26 -36 50 -36v36l-7 61h-7q-10 0 -36 -61zM351 607h7q140 146 217 169q36 120 36 146v24q-64 -83 -209 -230q0 -39 -51 -109zM438 873h7q112 134 181 134v36q0 63 -22 73 q-57 -67 -130 -73v-36q0 -43 -36 -134zM488 1128q57 31 66 73h-8q-58 -32 -58 -61v-12zM735 691q45 280 137 280h51q17 0 22 -110q-160 -218 -189 -218q-11 48 -21 48z" />
<glyph unicode="3" d="M0 836q9 65 76 65q64 -11 109 -93v-9q-19 -31 -19 -47h-26q-14 0 -25 10q-11 -10 -26 -10q-89 0 -89 84zM83 325q0 187 153 269q23 10 57 10q24 0 64 -195q38 -65 44 -65h13v9q-6 18 -6 28q153 33 153 269v112l-7 46h-38q-121 0 -121 121q0 22 64 223v65q0 18 -13 18h-25 q-38 0 -64 -232q-21 -19 -38 -19q-153 18 -153 93q-7 16 -7 47v56q0 85 185 278q59 28 83 28q103 0 159 -223q7 -12 7 -65v-56l-7 -65q149 -67 198 -158q108 -135 108 -306q0 -266 -147 -446q-192 -167 -286 -167h-19q-201 0 -313 149q-30 42 -44 176zM147 325q2 -19 12 -19 q0 21 77 47v9q-26 130 -38 130q-51 -98 -51 -158v-9zM185 204q16 -40 44 -55q0 37 96 83v9l-45 28q-40 0 -95 -65zM204 1105q0 -13 32 -37v19l-7 83h-6q-9 0 -19 -28v-37zM274 1300h6q32 28 45 28v19q-35 0 -51 -47zM299 111h7l115 28q-11 37 -45 37q-24 0 -77 -46v-19z M401 1393q13 0 64 -18v18l-38 9h-26v-9zM465 297q42 -18 57 -18q101 0 172 93q-89 -19 -229 -66v-9zM471 102h51v9h-51v-9zM593 427h6q172 18 172 75q4 65 13 65q-18 167 -45 167h-13q-64 -65 -89 -65v-102q90 46 108 46h20v-19q-5 -30 -153 -111q-19 -36 -19 -56zM605 873 q18 -25 32 -121q57 44 57 56q-36 74 -70 74q-12 -9 -19 -9zM688 1226v9q0 84 77 149h38q32 -21 32 -93v-19l-109 -120h-6q-32 23 -32 74z" />
<glyph unicode="4" d="M0 676v71q309 532 309 605q21 79 140 79q26 8 78 8h35q31 0 70 -56q24 0 28 -55q42 0 42 -271q7 0 7 -16h-7q0 -111 49 -111q16 0 28 -8q36 16 127 16q29 -11 42 -40v-31q0 -74 -190 -88h-14v-24q0 -18 -7 -32l91 -604q-34 -55 -49 -55q-23 16 -42 16q0 -18 -161 -72 l-28 16q-64 -24 -85 -24h-98q-36 0 -42 24v111q49 362 49 422h-42q-20 0 -161 -56h-36q-58 0 -133 175zM28 1248q0 43 35 64h14q54 0 63 -32v-40q0 -106 -56 -143q-10 0 -28 111q-9 1 -28 40zM98 692q0 -48 42 -80q56 50 148 96v8l-98 23q-27 0 -92 -39v-8zM112 787 q116 46 225 239v8h-7q-79 -48 -140 -64q-78 -150 -78 -183zM267 1081q86 40 140 48q42 78 42 111q-159 -70 -161 -95q0 -19 -21 -48v-16zM323 644h14q164 14 204 40v63h-7q-47 0 -113 -16l7 -15v-16q0 -35 -105 -48v-8zM337 1264h7q125 72 190 72l7 16v7h-7q-176 0 -176 -55 q-7 0 -21 -40zM400 143q4 0 127 48v111h-7q-47 -29 -113 -48v-55zM407 890h42l85 8v120l-7 55h-7q-61 -85 -113 -183zM421 342h7q94 56 106 56v55h-7l-85 -48q-13 8 -21 8v-71zM435 493h7q78 48 99 48v63l-106 -40v-71zM463 72h21q4 0 29 8v15l-50 -15v-8zM814 549 q44 143 134 143h7q52 -10 56 -32v-40q-24 -42 -112 -95q-16 -72 -35 -72q-50 32 -50 96z" />
<glyph unicode="5" d="M0 378q0 111 137 111h17q29 -26 29 -74l-23 -18q-6 0 -6 9q-49 0 -108 -65q-31 0 -46 37zM29 1190q0 110 108 139q149 24 384 120q119 9 137 18q66 0 120 -46l-6 -46q18 -114 18 -157v-9q0 -50 -23 -65h-18q-13 19 -22 19q-30 0 -98 -10l-28 19q0 -46 -160 -46l-109 -28 l11 -194q171 83 275 83h34q184 0 223 -203v-37l-5 -18q34 0 34 -277q-30 -350 -103 -350q-53 -47 -155 -47h-34q-28 -55 -86 -55q-185 0 -314 249v19q0 52 148 258h18q30 0 125 -175q48 -28 69 -28v9l-23 37q29 55 29 120v9q0 185 -92 185q-11 21 -11 55h-17q-25 0 -126 -37 l6 -46q-62 -74 -201 -74q-68 0 -68 139q-40 303 -40 470zM86 1135q80 38 80 74v27l-80 -36v-65zM97 1033l12 -110q63 76 63 83v92q-20 0 -75 -65zM120 812h6q57 44 57 102l-63 -65v-37zM132 738q7 -64 17 -64q95 59 103 101q-23 46 -52 46q-44 -83 -68 -83zM269 277 q20 -102 34 -102q39 37 46 37v9q0 7 -57 93q-9 0 -23 -37zM360 129l12 -9h28q30 0 35 28q-27 27 -52 27q-23 -41 -23 -46zM452 74l40 -9h63v9q-9 0 -86 28q-11 -10 -17 -10v-18zM538 747q43 -51 68 -92q38 25 46 56v9q-83 27 -114 27zM624 406h5q47 37 115 55v65 q0 18 -17 18l-103 -101v-37zM624 535q8 0 97 65q0 55 -34 55q-53 0 -63 -120zM658 323l57 28v18q-57 -28 -57 -46zM824 1080v27q0 132 91 157h12q8 0 17 -28v-64q-57 -111 -114 -111zM904 1569q7 55 17 55h12q11 -3 11 -18v-83l-6 -19q-34 24 -34 65z" />
<glyph unicode="6" d="M0 862v35h12v-35h-12zM0 1169v124q2 17 12 17h29q34 0 70 -149q0 -14 -23 -35h-12q-23 43 -76 43zM111 519v123q0 441 351 703q0 44 175 88h53q87 -141 87 -272q-8 -62 -23 -62q-41 18 -70 18q-94 0 -205 -264h6q52 35 152 53q217 0 263 -185q23 -73 35 -220 q0 -142 -64 -255q0 -101 -187 -220q-22 -8 -53 -8l-82 8q-47 -26 -87 -26q-138 0 -275 264q-76 176 -76 255zM164 659q4 -52 11 -52q129 85 129 158v18q-129 -102 -140 -124zM181 519l6 -62q62 42 105 106v61q-109 -85 -111 -105zM181 756h6q152 122 152 185h-6 q-146 -103 -146 -123q-6 -35 -6 -62zM205 387q23 -68 29 -79q70 42 70 114l-6 53q-9 0 -93 -88zM222 941q141 79 158 97l17 44v8q-175 -93 -175 -140v-9zM263 237q25 -35 47 -35h17q18 0 18 35q-18 62 -35 62q-27 -15 -47 -62zM351 132q66 -35 76 -35h5v9q-51 61 -70 61 l-11 -26v-9zM386 1178h11q53 0 117 123h-6q-39 -19 -122 -123zM485 475q0 -141 94 -194h11v53q0 181 -52 229l5 17h-5q-14 0 -53 -96v-9zM614 607q41 -139 41 -220v-97h23l47 62q0 255 -106 255h-5zM789 967q30 150 99 150q24 -12 35 -44v-27q-79 -83 -99 -123 q-35 31 -35 44z" />
<glyph unicode="7" d="M0 982v47q8 31 54 31q65 0 79 -110v-8q-13 -31 -30 -31q-103 47 -103 71zM127 1225v32q0 41 36 70h60q64 0 290 63q146 39 307 63q79 -11 79 -71q0 -84 -97 -275q12 -7 18 -7q53 23 79 23q60 -33 60 -86v-24q0 -50 -211 -71q-58 0 -121 -384v-102l6 -40h-6 q18 -125 55 -282q-6 -14 -6 -32v-8l6 -15l-13 -8h-78q-35 0 -96 8q-12 -8 -19 -8v8l-12 -8h-36q-54 -3 -114 -71q-12 0 -12 24q-40 -16 -55 -16h-12q-25 0 -36 180q5 232 84 472l31 55q-97 0 -97 110q12 159 12 180q-70 0 -102 220zM187 1241l12 -63h6q36 30 36 39 q-14 0 -18 40zM229 1100h18q79 0 193 110h6v15h-6q-61 -39 -114 -39h-49q-48 -51 -48 -86zM271 149q175 230 175 362v15h-6q-169 -173 -169 -290v-87zM271 864q6 -14 6 -31q55 34 67 78q-18 44 -18 63q96 71 265 236q63 47 97 47q12 0 12 -32h6q0 16 24 55v8 q-194 -55 -223 -71q-7 -56 -163 -180q-67 -13 -67 -87q0 -43 -6 -86zM277 94q133 26 133 157v32q-9 -1 -120 -165h-13v-24zM296 424h18q0 25 150 196q0 19 19 48h-13q-168 -147 -168 -181q-6 -43 -6 -63zM344 801q60 0 60 -31v-8q0 -28 -48 -110h6q175 129 181 228l-97 -40 q-21 0 -48 32h-6q0 -26 -48 -71zM549 1060h6q78 0 139 150h-6q-99 -95 -139 -150zM718 581q28 149 84 149h36q9 0 18 -23q0 -49 -66 -157q0 -71 -48 -71q-18 0 -24 102z" />
<glyph unicode="8" d="M0 939q10 56 42 75h16q63 -29 63 -112q-6 -30 -21 -30q-100 24 -100 67zM105 406q0 274 42 360q47 55 47 98q-58 94 -58 150q0 193 178 361l200 45v-8l10 8h37q124 0 178 -203q5 -29 5 -60v-38q0 -96 -52 -180q18 -17 89 -52q116 -95 173 -361q0 -27 5 -68 q0 -128 -89 -263q0 8 -5 8q-23 -97 -179 -180q-80 -23 -99 -23q-76 23 -100 23q-34 -15 -47 -15l-21 7l-10 -7q-46 0 -105 60q-168 92 -168 233zM168 473q42 39 89 68q0 29 16 143q-105 -87 -105 -105v-106zM183 361l6 -38h5q19 0 73 53q0 9 -5 75q-26 0 -79 -68v-22z M189 1059l5 -52q21 0 105 82h5v30l5 38h-5q-76 -90 -115 -98zM204 729h6q81 53 178 158v7q0 10 -26 38h-6q-104 -89 -152 -203zM220 233l63 -68q28 14 47 38q-39 98 -42 98q-60 -39 -68 -68zM236 947q38 -23 42 -23q0 11 52 45q-16 38 -16 53h-5q-50 -59 -73 -68v-7z M278 1225h5q52 15 52 45q9 0 21 30v7q-44 -25 -78 -82zM351 128q10 0 42 -30v15q-9 0 -26 22h-16v-7zM445 1112q42 -98 74 -98v8q0 111 -53 173q-18 -81 -21 -83zM456 473q8 -187 99 -187q10 -8 21 -8q21 83 21 143q0 140 -83 248q-58 -91 -58 -196zM514 1225 q62 -28 62 -136v-90h6q68 53 68 128q-61 120 -100 120q-21 -7 -36 -7v-15zM587 676q73 -162 73 -293q-15 -69 -15 -82l10 -8q58 50 58 180q0 182 -89 211h-37v-8zM791 1104q25 158 79 158h21q7 0 31 -45v-15q-84 -140 -84 -188l-10 -7h-5q-32 35 -32 97z" />
<glyph unicode="9" d="M0 352v32h9v-32h-9zM40 1038q0 84 50 157q0 112 247 258h9l54 -6q48 12 85 12q32 -6 36 -6q23 19 45 19h4q34 0 36 -63q27 -35 27 -101q33 -57 41 -125q10 -7 58 -183q65 -159 72 -295q-5 -13 -5 -19q8 -5 59 -296l58 -233q0 -37 -36 -44v-31q-53 -82 -90 -82h-45 q-13 0 -13 50h-14q0 -6 -4 -19l-18 7l-27 -7q0 13 -9 13q-11 0 -49 -13q-144 0 -171 126q31 307 31 365v13q0 14 5 25l-14 113h-40q-52 0 -72 -12q-4 0 -4 6l-23 -6q-213 0 -269 232q-9 37 -14 145zM90 1000q4 -11 4 -25q99 84 99 113q0 8 9 69v7q-13 -19 -103 -76 q-9 -72 -9 -88zM103 906q0 -40 41 -82q3 18 89 94l5 13q-29 69 -36 69zM162 1214q80 46 80 82q7 0 27 38q-58 -38 -107 -114v-6zM166 780q60 -31 94 -31q57 69 68 69q-38 50 -59 50h-4q-99 -77 -99 -88zM220 516v25q0 53 58 69h14q81 0 81 -56v-26q-12 -31 -18 -31h-14 l-13 13q-58 -19 -77 -19q-24 0 -31 25zM283 1095q0 -100 139 -145h5q0 3 18 31v25q0 98 -104 246h-4q-54 -53 -54 -145v-12zM319 736l9 6q96 7 134 7q97 87 149 119v19q-8 0 -90 -69q-165 -32 -202 -69v-13zM395 1271q89 -131 99 -214q31 38 31 100q-53 120 -130 120v-6z M494 201q4 -11 4 -25l9 6q9 -2 9 -12q91 67 122 82v12q0 32 -5 95h-4q-47 -13 -126 -95q0 -63 -9 -63zM521 359h4q60 46 104 69v12q-5 56 -5 70h-4q-99 -44 -99 -126v-25zM525 541q5 -11 5 -25q90 58 90 69v19l-5 63h-4q-86 -56 -86 -126zM525 654q75 52 90 82v44l-4 31 q-66 -56 -86 -56v-101zM539 120q44 -13 76 -13l23 6v95h-5q-72 -40 -94 -82v-6zM777 1006v7q29 126 90 126h4q27 -24 27 -57q-81 -68 -81 -126h-4q-36 5 -36 50z" />
<glyph unicode=":" horiz-adv-x="557" d="M0 204q27 213 165 213h39q281 0 281 -78q29 -65 29 -106v-49q0 -101 -165 -126q-81 -58 -145 -58h-49q-122 0 -155 204zM39 707q54 262 213 262q90 -53 223 -97q58 -68 58 -135v-30q0 -126 -194 -155q-86 -48 -135 -48q-165 62 -165 203zM97 136q107 25 107 58 q0 19 -20 19q-70 -39 -87 -39v-38zM107 252q106 29 106 87v10q-106 -29 -106 -97zM145 669q14 -40 49 -58h29l-10 48v48q-52 0 -68 -38zM155 766h10q77 58 77 96q-87 -54 -87 -96zM174 78h39l68 9v10q0 14 -29 29h-10q-52 0 -68 -39v-9z" />
<glyph unicode=";" horiz-adv-x="557" d="M0 759v179q71 156 155 156h29q46 0 77 -72q146 0 146 -179q0 -143 -223 -143q-22 -36 -68 -36q-48 0 -116 95zM48 138v12q39 251 204 251q34 0 106 -84q184 -85 184 -298q0 -124 -77 -191l-20 12q-157 -96 -174 -96h-48q-14 1 -39 60v24q32 71 39 71l-10 24q10 23 10 36 q-175 49 -175 179zM58 807q64 -48 78 -48q-39 97 -39 167h-20l-19 -83v-36zM145 126h10q28 0 77 167h-9q-78 -79 -78 -167zM290 -17q3 -24 20 -24l48 72v12l-19 -12h-49v-48zM300 -136v-36q68 28 68 47v36h-29q-15 0 -39 -47z" />
<glyph unicode="&#x3c;" d="M142 560q0 134 52 167q376 461 442 461h30q32 -30 37 -30q0 22 14 22h8q0 -36 132 -204v-53q-10 -29 -103 -68q-169 -136 -169 -143q68 -88 339 -242q32 0 44 -106q0 -82 -199 -151q0 -23 -30 -23l-221 121q-181 76 -228 144q-148 44 -148 105z" />
<glyph unicode="=" d="M19 859q7 17 78 36l759 24q68 -24 68 -28q-57 -84 -146 -84h-29q-10 0 -10 4l-19 -4h-20q-138 0 -360 -20q-10 0 -10 4q-108 -5 -136 -8q-118 0 -175 76zM77 707v16q0 17 49 32q97 -4 146 -4h19q437 20 516 20h10q98 0 146 -72q0 -23 -78 -36q-86 4 -107 4 q-370 -28 -428 -28l-10 8q-35 -8 -78 -8h-19q-135 0 -156 52q-10 7 -10 16z" />
<glyph unicode="&#x3e;" d="M87 193v167l625 355l-625 359v167l840 -484v-83z" />
<glyph unicode="?" horiz-adv-x="748" d="M0 979q6 10 6 15q0 6 -6 16q0 317 244 408q61 21 119 21h17q338 0 403 -471q0 -159 -278 -288q-51 -14 -51 -78q6 -10 6 -16l-6 -10q17 -177 23 -194l-6 -26v-37q0 -60 -28 -68h-6q-97 18 -97 79q-32 100 -153 392v16q0 91 227 183q85 57 85 120q-5 10 -5 16h5 q-31 89 -79 89h-23q-40 0 -74 -31q23 -37 23 -95q0 -99 -142 -99q-18 -14 -130 -47q-53 0 -74 105zM260 105q7 99 76 99q49 0 60 -115q-24 -89 -64 -89h-4q-59 0 -68 105z" />
<glyph unicode="@" horiz-adv-x="2019" d="M0 432q0 13 13 13l-13 61v109q0 278 243 537q445 292 836 292h67q493 0 756 -609q13 -144 13 -208q0 -371 -297 -572l-121 -49q-254 0 -378 122q-133 -146 -364 -146q-336 0 -404 292v61q0 173 445 292q41 0 94 13q184 0 351 -183l27 -49q-14 -104 -14 -158 q72 -49 122 -49q271 66 296 292q0 134 14 171q-22 70 -54 244q-213 292 -540 292q-348 0 -674 -280q-148 -196 -148 -585q0 -413 269 -536q0 -60 122 -122v-25q-37 -80 -81 -97q-405 61 -405 268q-175 213 -175 609zM701 225h14q154 0 189 159h-41q-162 -28 -162 -122v-37z " />
<glyph unicode="A" horiz-adv-x="1540" d="M-26 1323q17 157 105 157q115 -30 115 -167v-32q0 -178 -94 -230h-11q-44 0 -63 230q-51 28 -52 42zM194 1124q18 74 42 74h31l31 -168q164 126 189 126q-21 38 -21 94h-11q-75 -73 -125 -73h-21q-21 0 -21 21q133 136 188 136l11 -21q104 59 356 83q45 29 167 32 q84 0 115 -199q275 -671 314 -827q53 -31 53 -167v-42q0 -39 -252 -63h-10q-96 0 -126 230q-49 262 -115 262q-146 -21 -146 -73l-11 -74q11 -255 11 -387q-53 -31 -84 -31h-42l-21 10q0 -63 -104 -63l-199 -31q-2 15 -105 94l10 63q-10 279 -83 795q0 11 10 11 q-10 90 -31 188zM309 873h21q142 136 178 136v42q0 21 -21 21q-4 -17 -178 -157v-42zM351 611h10q189 139 189 157v32h-11q-134 -124 -188 -126v-63zM361 454q198 143 210 168v42q-123 -87 -199 -126q-11 -18 -11 -42v-42zM361 768q81 49 168 126v31h-21q-60 -31 -147 -146 v-11zM382 318q3 -21 21 -21q145 147 189 147v63q0 21 -21 21q-53 -69 -189 -168v-42zM393 130q215 129 230 167v32l-11 42h-10q-107 -104 -199 -178zM550 99q10 0 10 10l52 -10h32v10l-11 52q11 0 11 11h-11q-33 -11 -83 -63v-10zM853 800h11q83 10 83 31q-52 163 -52 189 q-23 0 -42 -220zM1282 1009q0 165 168 220q94 -18 94 -94q0 -30 -115 -178v-115q-17 -42 -73 -42q-74 87 -74 209z" />
<glyph unicode="B" horiz-adv-x="1219" d="M-47 1240v19q0 83 69 83q20 0 52 -28q-5 -185 -43 -185h-18q-9 0 -60 111zM117 1092v46q0 158 276 158q211 111 268 111q233 -71 233 -139q61 -92 61 -185l-9 -56q259 -124 259 -388q0 -157 -207 -343q-107 -37 -182 -37h-69q-34 0 -112 19q-40 -158 -103 -158 q-15 0 -113 -120q-67 0 -112 342q-69 126 -138 556q-14 5 -52 194zM169 1148q17 -23 17 -37q97 105 147 111v18q-150 -44 -164 -83v-9zM212 1074l9 -93v-18h8q13 0 113 120v37l-9 46h-9q-99 -92 -112 -92zM247 870h8q78 63 95 120l-17 10q-54 -74 -86 -74v-56zM272 787 q18 -59 18 -74q77 50 77 120q-11 46 -25 46q-70 -74 -70 -92zM307 648l9 -46h8q61 46 61 111q-61 -65 -78 -65zM333 509q7 -37 17 -37q52 23 52 83v37h-17q0 -25 -52 -83zM376 379q9 -74 26 -74q26 34 26 65v37q0 19 -17 19q-18 -4 -35 -47zM419 130h9q13 0 34 37v46 q0 68 -25 74q-18 -34 -18 -74v-83zM618 1018h8q18 0 18 19v74q0 18 -18 18zM644 1203q69 -66 69 -166l34 18q-17 157 -34 157h-26zM670 694q0 -47 51 -166h61l17 64q-6 130 -43 130q-69 -28 -86 -28zM834 759q43 -122 43 -176l-9 -46h9q60 0 60 120q0 52 9 102l-17 9h-9z M955 1240v9q0 106 103 130q50 0 69 -83q0 -61 -77 -74v-84q0 -13 -26 -27q-69 34 -69 129z" />
<glyph unicode="C" horiz-adv-x="1399" d="M0 688q32 53 32 86v10q0 25 -11 43q179 441 306 441q78 69 147 86l-10 21v11q0 15 31 32h21q0 -43 21 -43l274 65q137 0 137 -108q60 -3 232 -215q0 -106 -284 -268q-348 0 -348 -290q0 -207 232 -269q13 -11 74 -11q78 0 179 172h52q16 0 32 -32v-75q0 -211 -379 -333 q-39 -11 -95 -11h-53q-182 0 -421 215q-148 166 -148 451q-21 0 -21 22zM105 634h11l169 64v43q-174 -73 -180 -96v-11zM105 774q180 44 180 75h-11q-94 0 -169 -75zM116 881q190 54 200 97q-200 -22 -200 -54v-43zM126 516l11 -54q85 54 137 54l11 -22v-10 q-36 -65 -116 -97q20 -49 42 -54q1 18 95 75q-11 194 -32 194l-148 -65v-21zM190 1042q274 53 274 129v11q-274 -36 -274 -140zM242 279q0 -13 74 -64h32q0 21 42 54q-17 53 -63 53q-85 -19 -85 -43zM400 161q65 -32 85 -32q0 17 21 43q-21 0 -63 43q-17 0 -43 -43v-11z M548 97l74 -11h10v11l-52 10h-32v-10zM611 1322q24 0 42 -11q32 21 85 21v11h-74l-53 -11v-10zM738 731v10q38 65 126 65q13 -41 53 -97v-11q0 -15 -32 -32q-147 36 -147 65zM1001 645q65 150 158 150q48 -18 74 -64v-11q-17 -50 -137 -86q0 -71 -42 -86q-53 27 -53 97z" />
<glyph unicode="D" horiz-adv-x="1518" d="M0 1114q43 117 328 224q20 11 31 11q0 20 -21 20h-74v20q0 49 116 143q0 23 11 41l-32 92q0 69 106 82q63 0 63 -72v-40q0 -157 -116 -225v-10h21q208 30 349 30h32q188 0 274 -408q148 -291 148 -481q-40 -255 -127 -255q-99 -153 -211 -153q-38 -31 -106 -31h-10 l-53 10q-58 -112 -211 -112h-85q-28 0 -84 296q-106 317 -317 726q-13 0 -32 92zM74 1103l11 -51q176 105 179 174h-10q-46 -8 -180 -123zM137 991q11 -41 32 -72q17 0 159 133q-21 47 -43 51q-65 -41 -148 -112zM222 838l10 -21q127 63 127 133v41q-137 -127 -137 -143v-10 zM285 715q11 -20 11 -31h10q81 64 117 123v10l-11 51q-127 -97 -127 -153zM349 593q6 -62 31 -62q89 96 117 102q-32 92 -43 92q-105 -57 -105 -132zM402 450q0 -9 31 -82l116 102q-23 92 -42 92q0 -27 -105 -112zM465 194h10l138 112q-32 72 -32 103q-116 -106 -116 -164 v-51zM518 92q39 0 148 51q-32 57 -32 82q-8 -2 -116 -123v-10zM676 1103q0 -95 74 -582h11q127 0 127 92v31q-61 470 -191 470h-21v-11zM1173 143q83 296 190 296h11q63 -6 63 -30v-72q-201 -185 -201 -255h-10q-39 19 -53 61z" />
<glyph unicode="E" horiz-adv-x="1151" d="M0 745v18q0 18 60 36q189 -83 189 -236l-26 -18h-17q-28 63 -86 63q-120 58 -120 137zM137 1008q110 125 249 309h17l35 -27q13 0 317 154h35q111 -16 111 -100v-54l-172 -100l9 -18v-46q0 -30 26 -181q78 54 154 54q54 0 112 -82v-9q-72 -82 -240 -136q0 -153 42 -372 h18l248 81q63 0 69 -81q0 -88 -197 -146q-152 -100 -206 -100q-123 -154 -232 -154q-49 111 -137 391q-60 66 -60 172q-107 123 -198 445zM197 999q18 -30 18 -54q16 0 111 118h43v-9q-120 -146 -120 -209q11 0 137 154q9 0 9 9q0 11 -43 136h-17q0 -47 -138 -145zM292 772 q8 -18 8 -27q121 116 121 163q-9 16 -9 37q-120 -109 -120 -173zM335 672q2 -18 17 -18h17q0 9 94 127v9l-8 46h-9q-11 0 -111 -155v-9zM395 572l8 -45l103 136v18l-8 46h-26q-77 -121 -77 -146v-9zM429 454q9 -17 9 -27h17q0 46 103 127q-21 73 -35 73zM472 309l17 -9 q71 108 86 109q17 -3 17 -18q-77 -156 -77 -173q11 -55 26 -55l111 173q-59 142 -86 164h-8q-86 -123 -86 -191zM566 73q101 42 163 118q-50 81 -60 81h-8q0 -15 -95 -190v-9zM918 1517q0 122 95 145q43 -14 43 -64q0 -74 -86 -190q-32 0 -52 109z" />
<glyph unicode="F" horiz-adv-x="1079" d="M-2 1062v17q17 78 37 78h45q96 -67 96 -173q-11 -34 -22 -34h-37q0 77 -119 112zM198 1157q167 181 179 224q40 -9 59 -9l267 52q194 0 305 35l52 -69v-130q0 -14 -245 -77q-15 -24 -15 -121q148 34 222 34q45 -63 45 -155q0 -138 -45 -138q-267 0 -267 -95v-251 q0 -19 8 -34l-8 -17q8 -89 8 -138v-52l-67 -61h-37l7 -43q-109 -112 -163 -112q-52 311 -193 794q-22 49 -112 363zM250 1139q23 -43 23 -60h7q9 0 119 147v17q0 17 -15 17q-122 -121 -134 -121zM295 1010q7 -15 7 -35h8l111 139v51h-7q-18 -7 -119 -155zM332 889 q104 68 104 130v17h-7q-97 -78 -97 -138v-9zM354 829q5 -69 23 -69q10 0 89 103v17l-8 44h-7q-75 -95 -97 -95zM384 699q5 -52 22 -52l89 104q-14 28 -14 43q-64 -86 -97 -86v-9zM429 578h7q59 69 74 69v18q0 17 -15 17q0 -8 -66 -104zM443 492q0 -50 38 -86q66 77 66 95 l-14 60q7 0 7 9q-7 0 -7 8q-12 0 -90 -86zM488 345q4 -77 22 -77q61 55 74 112q-14 35 -14 52h-8q-25 0 -74 -87zM525 173q0 -15 15 -44q9 0 67 78v69q0 17 -15 17q-67 -66 -67 -120zM822 501v26q17 107 119 189q59 0 59 -69q0 -49 -119 -138q0 -56 -37 -77q-22 43 -22 69z " />
<glyph unicode="G" horiz-adv-x="1479" d="M0 718v26q0 91 137 256l470 308q216 119 401 119h52q31 -23 111 -43l8 -34q-134 -245 -213 -324h-77q-238 0 -334 -129q0 -161 95 -410q118 0 376 120l25 25v9q-25 0 -25 17q-39 -17 -112 -17q-94 123 -94 197t257 102h8q154 0 154 -128q28 -21 60 -128q0 -9 -9 -9l9 -34 q0 -182 -239 -342q0 -17 -17 -17l-17 9q-48 0 -52 -86q-139 -43 -461 -171q-93 -34 -154 -34q-164 0 -325 453q-25 0 -25 17q2 17 17 17q-26 179 -26 231zM77 701h8q171 79 171 137v17q-78 -66 -179 -111v-43zM85 573h9q137 77 137 136v9h-9q-137 -88 -137 -94v-51zM111 436 h9q26 0 136 68q-6 103 -25 103q-120 -80 -120 -128v-43zM120 829q187 119 188 137q0 9 42 94q-221 -152 -230 -231zM162 333l9 -42q53 0 120 76q0 65 -43 86q-86 -65 -86 -111v-9zM179 1410v9q0 59 60 59h26q77 -51 77 -136q0 -63 -60 -103q-23 0 -43 120q-60 0 -60 51z M214 222q0 -4 51 -94q4 0 145 94l-85 94q-111 -68 -111 -94zM333 68h9q114 0 367 120v9h-8q-75 -9 -86 -9l-136 9l-146 -120v-9zM675 778v17q13 94 34 94h52q21 0 34 -103l-9 -85q34 -4 34 -26v-17l-8 -17q-137 19 -137 137z" />
<glyph unicode="H" horiz-adv-x="1579" d="M0 1072v57q0 12 25 24h32q104 0 156 -220l-41 -17q-33 0 -90 90q-82 0 -82 66zM204 1080q0 106 189 245v8l57 -8q199 57 229 57q54 -22 65 -49q0 -24 -8 -24q36 -376 49 -376l82 49q-65 363 -65 376q76 106 180 106q0 21 98 49h16q72 0 98 -196q177 -642 303 -949 q49 -96 49 -204v-33q-11 -52 -278 -74l-16 8l-74 -16q-74 117 -245 720q-51 -21 -131 -74q90 -416 90 -540q-33 0 -33 -130q8 -16 8 -25q-82 8 -123 8h-8q-29 0 -65 164q-120 257 -262 458l8 16q-33 41 -204 434h-9zM294 1072l25 -17q0 15 106 139v8l-24 17 q-107 -141 -107 -147zM360 982q8 -16 8 -25h16q74 108 74 131v16q0 17 -16 17q-82 -116 -82 -139zM417 875q6 -41 25 -41q57 99 57 123v25q0 16 -16 16q-66 -103 -66 -123zM466 769q16 -37 33 -41q57 79 57 106q-12 33 -24 33q0 -19 -66 -98zM532 630q8 -16 8 -25h8 q14 0 49 74q-16 33 -16 57q-49 -46 -49 -106zM589 532q33 -41 33 -58q24 9 24 50q0 44 -33 65q0 -22 -24 -49v-8zM663 409q65 -172 90 -172v8q-33 60 -74 189q-16 -3 -16 -17v-8zM859 1358q0 -20 16 -90h8q30 0 41 123q-16 8 -24 8q-41 -14 -41 -41zM892 1162h16 q49 28 49 73v41h-16q-49 -76 -49 -114zM916 1088q17 -66 33 -66q0 14 65 50q-21 98 -41 98q0 -10 -57 -82zM998 802q0 -16 16 -82h17q49 106 49 123v8h-8q-59 -41 -74 -41v-8zM1039 646q0 -55 41 -82q11 50 49 107l-8 57h-17q-16 -82 -65 -82zM1096 466q8 -16 8 -24 q35 0 66 114q-8 15 -8 33h-17q-49 -105 -49 -123zM1129 360q41 -36 41 -98h16q0 25 41 49l-25 123h-16q0 -17 -57 -74zM1202 180l25 -57q7 0 65 24q-32 84 -32 98h-17q0 -12 -41 -65zM1333 1055l58 17q53 -171 81 -213q39 -42 58 -98q-12 -34 -41 -49q-156 0 -156 343z" />
<glyph unicode="I" horiz-adv-x="657" d="M0 562q13 55 52 55q71 -99 71 -245q-13 -41 -26 -45q-17 24 -39 127q-58 0 -58 108zM116 1216q0 52 117 199q0 16 32 18h45q22 0 194 -154q46 0 65 -45q-26 -156 -26 -327v-36q13 -678 13 -753v-36q0 -34 -142 -46q-35 0 -117 18q0 -42 -90 -54q-61 0 -65 100h7l-7 18 q7 205 7 254l6 18q-8 107 -13 145q0 9 7 9l-20 173h7l-7 18q0 81 -6 109q6 71 6 145q-13 191 -13 227zM181 1188l13 -9q50 46 58 46v45l7 45l-13 10q0 -9 -65 -109v-28zM194 862q71 27 71 54v46h-19q-52 -40 -52 -55v-45zM194 998q65 39 65 63q0 64 -13 64q-39 -36 -52 -36 v-91zM200 726h7q65 52 65 72l-13 9q0 -17 -52 -45q0 -20 -7 -36zM207 109q21 -18 39 -18h13v109q-52 -20 -52 -91zM207 590l6 -18q44 27 52 27v81q-31 0 -58 -45v-45zM213 254q59 33 59 118h-13q-30 -15 -46 -54v-64zM213 472l7 -46q19 19 45 19v72q-52 -31 -52 -45z M601 1070v10q24 235 104 235q29 -15 45 -54q-96 -224 -129 -254q-20 33 -20 63z" />
<glyph unicode="J" horiz-adv-x="657" d="M0 395q45 133 176 283l37 -10q11 10 18 10q36 -94 73 -94q13 84 18 84q0 118 -158 405q0 72 -18 94q87 283 255 283h12q237 -646 237 -932h-6q0 -10 6 -10q0 -115 -48 -244q-12 -41 -128 -123q0 -9 -6 -9l6 -19v-9q0 -51 -182 -104h-37q-147 0 -243 320q0 9 -12 75z M0 998q0 25 30 47q110 -55 110 -169q-15 -66 -25 -66q-39 0 -42 75q-73 58 -73 113zM55 386q12 -31 12 -47h6q18 74 18 85q-36 -22 -36 -38zM97 264q0 -13 31 -47q24 109 24 169q0 19 -12 19q-25 -100 -43 -141zM158 151q6 -29 36 -29h7v19q0 13 12 104v28q0 14 -19 28h-6 q-30 -122 -30 -150zM194 1139q19 0 19 -28h12q0 65 42 132l-18 19h-6q0 -19 -49 -113v-10zM243 85l30 -10q19 89 19 104l-37 28q-12 -85 -12 -122zM243 1064q16 -47 24 -47q0 50 25 150q0 19 -12 19q-7 -113 -37 -113v-9zM298 951q0 -15 24 -38q13 85 18 85q-8 56 -18 56 q0 -46 -24 -94v-9zM334 104h12q13 0 13 18h-25v-18zM346 433q0 -13 19 -28h18q44 0 55 56l-13 10l6 19v37h-6zM346 847q24 -42 25 -84h6l12 9l-18 104h-6q-9 0 -19 -29zM365 555q48 41 48 104q-4 47 -18 47q-30 -144 -30 -151zM462 1525q12 66 48 66h13q32 -21 42 -85 q-11 -50 -30 -84l42 -66v-10q-6 -28 -36 -28q-49 0 -79 207z" />
<glyph unicode="K" horiz-adv-x="1382" d="M0 779l43 28q59 0 93 -165q0 -78 -51 -110q-50 0 -68 55q9 62 9 100zM60 1036v55q54 46 178 256q231 92 298 92h25q63 -31 77 -385q20 18 127 330l34 28h34q238 -60 238 -165q-48 0 -59 -129q-52 -101 -145 -247v-19q358 -195 511 -265q0 -31 8 -46q0 -86 -170 -358 l-9 -46q-123 0 -450 220h-9v-9q0 -71 26 -211q-42 -39 -119 -64q-43 -31 -85 -73h-17q-35 0 -111 229q-100 159 -323 642q-59 92 -59 165zM128 1036q8 -15 8 -46h9q102 114 102 192v19h-9q0 -46 -110 -165zM196 898q8 -18 8 -27h17q0 15 77 165v46q0 18 -17 18 q-85 -142 -85 -202zM255 797q23 9 77 120v45h-9l-68 -146v-19zM298 687q11 -45 25 -45q68 121 68 146l-8 46h-17q-68 -122 -68 -147zM357 559q0 -14 34 -37h9q42 106 42 120q-13 36 -25 36q-60 -91 -60 -119zM425 449q34 -55 34 -73h17q34 18 34 55q0 57 -42 101 q-43 -66 -43 -83zM519 275q0 -50 76 -138v19q0 49 -59 174h-17v-55zM723 568q4 -119 17 -119q8 0 51 -37v10q0 146 -68 146zM833 513q37 -174 77 -174h8v9q-42 87 -42 165l-43 9v-9zM944 467q53 -183 76 -183q15 -9 34 -9q-40 192 -102 192h-8zM1029 953v46q22 128 119 128 q34 -13 34 -27v-9q-73 -217 -111 -239q-29 0 -42 101zM1088 367q29 -147 60 -147h8q43 60 43 110q-9 0 -111 55v-18z" />
<glyph unicode="L" horiz-adv-x="1128" d="M0 1068v28q82 297 173 297q0 18 157 37q86 -77 94 -176q173 -509 212 -650q233 92 283 92h70q110 -98 110 -148q16 -75 16 -93v-19q0 -40 -322 -92q-280 -168 -298 -168l-55 10q0 -22 -118 -186h-8q-38 0 -94 344q-128 362 -173 585q-47 77 -47 139zM8 334q13 112 39 112 h16q80 0 141 -130q-5 -121 -31 -121q-165 122 -165 139zM47 1077q10 -56 24 -56q0 20 70 158q-8 56 -23 56q-50 -100 -71 -158zM94 901h8q9 0 86 130l-7 55q-83 -104 -87 -185zM126 808q23 -68 23 -84h8q71 133 71 158v19l-8 46h-8q-16 0 -55 -121zM173 641q8 -18 8 -28h7 l79 93q0 68 -24 74q0 -50 -70 -139zM220 501q2 -18 16 -18q0 20 62 121q-10 46 -23 46q-55 -97 -55 -130v-19zM251 390q24 -111 40 -111q39 77 39 120v47l-16 65zM298 204q24 -56 24 -65h8q9 0 63 93q-24 0 -24 56h-8q-63 -66 -63 -84zM550 1021q0 149 70 149q47 -6 47 -28 q-15 -83 -15 -121v-130q0 -13 -24 -27q-78 65 -78 157z" />
<glyph unicode="M" horiz-adv-x="1798" d="M0 806v18q3 18 21 18h41q8 0 61 -54q10 0 123 108q-30 72 -30 80h-31q-68 -116 -154 -116h-21q0 139 339 305q144 53 175 53q57 -14 267 -197q51 146 82 296q228 80 308 80h51q25 -17 41 -17q64 35 175 53q111 0 144 -206q195 -495 195 -716q0 -63 -298 -63 q-87 -49 -175 -117h-20q-42 0 -123 404h-21q0 -66 -144 -72q0 -9 -41 -27q-128 0 -308 170h-10q0 -97 144 -519q10 -56 10 -126v-27q0 -52 -92 -80q-11 -54 -31 -54h-41q-110 114 -165 215q-71 40 -390 475q-82 69 -82 116zM185 708q31 -30 31 -45h10q82 75 82 116v18h-10 q-62 -71 -113 -71v-18zM288 573l30 -18q0 10 62 63l-10 63h-21q0 -35 -61 -108zM370 484q20 -41 41 -45q31 33 31 63q0 46 -31 53q0 -16 -41 -71zM452 385q29 -56 113 -116v9q-32 85 -93 161zM524 1424v27q0 31 123 45q79 -73 92 -161q-15 -36 -30 -36h-31q-154 35 -154 125 zM863 950q20 0 92 -63l31 63h-41l-52 -9l-10 35h-10q0 -9 -10 -26zM883 430q13 107 41 107h10q79 0 144 -259v-18q-34 -18 -61 -18h-31q-103 60 -103 188zM893 1030q11 0 11 -9q77 18 92 18q0 -9 10 -9l31 54v9h-10q-134 -42 -134 -63zM924 1165q236 65 236 143h-10 l-205 -63q0 -13 -21 -80zM1212 842q14 0 30 -27v-18l-10 -18h10q38 28 134 188q0 26 -31 171q-17 -13 -133 -296zM1263 654h51q0 18 103 116v9l-10 63h-21q-11 -27 -123 -188zM1284 555q15 -35 30 -35q74 98 134 98q-13 81 -31 81q-27 -79 -133 -144zM1325 430h20 q86 54 113 54v80q0 18 -20 18q0 -28 -113 -143v-9z" />
<glyph unicode="N" horiz-adv-x="1554" d="M0 833q74 113 265 314q194 69 294 69h10q14 0 196 -196v19q-79 127 -79 157v20q0 35 98 147q0 28 157 108q100 0 275 -471q64 -111 166 -422q69 -43 69 -98v-49q-8 -17 -274 -107q-16 -40 -69 -40q-52 52 -108 59q-262 343 -274 343v-9q0 -44 107 -471q20 -103 20 -128 l-29 -19h-118v-10l20 -39l-20 -10h-79q-85 40 -264 392q-106 145 -275 304q0 20 -88 137zM88 873q19 -45 39 -49q0 30 99 137v10q0 19 -20 19q-91 -117 -118 -117zM186 726l20 -10l88 108q0 50 -29 58zM284 647q3 -20 20 -20h10q0 25 49 99v9q0 20 -20 20h-10q0 -23 -49 -88 v-20zM363 539q19 -32 19 -49h20q10 50 39 79q-12 49 -29 49q-3 -17 -49 -79zM451 402q29 -45 29 -59q40 16 40 69q-14 68 -40 68q-29 -55 -29 -78zM539 255q73 -118 88 -118h10v10q0 49 -78 157q0 -25 -20 -49zM765 1177q0 -16 39 -40h10l19 69v20q0 14 -29 29 q-26 0 -39 -78zM853 980h20q29 71 29 89q-10 19 -10 29h-10q-29 -6 -29 -78v-40zM873 275l19 9h10q108 -68 108 -176v-39q0 -53 -39 -69q-98 0 -98 275zM892 873q0 -15 30 -30h9q7 49 49 49q-23 69 -39 69q-17 -52 -49 -88zM941 1696q0 92 137 108q30 -36 30 -69v-39 q0 -23 -39 -88l29 -98v-30h-69q-88 94 -88 216zM980 784q20 -60 108 -127v10q-51 128 -88 157h-10z" />
<glyph unicode="O" horiz-adv-x="1614" d="M0 611v10q0 541 461 771q71 -10 80 -10q7 0 140 50h10q244 -63 400 -281q101 -150 101 -220v-20q67 0 90 -350q0 -148 -70 -251h20l40 10q60 -20 60 -40v-50q0 -47 -130 -190v-40h-10q-81 0 -81 80q0 68 60 180h-10q-221 -160 -550 -160q-13 0 -200 -30h-61 q-140 0 -310 270q-40 108 -40 271zM60 1472v20q0 80 90 80q50 -70 50 -190v-20q-14 -100 -90 -100q-20 0 -30 60l30 60q-30 0 -50 90zM80 561q140 92 140 170v20q-140 -92 -140 -190zM90 741h10q160 78 160 180v30h-10q-160 -142 -160 -210zM110 441l10 -51q110 105 110 161 v20q0 20 -20 20q0 -34 -100 -100v-50zM160 320q30 0 30 -40h20q50 29 50 60q-6 81 -30 81q-70 -95 -70 -101zM200 1011q80 37 80 120q23 0 30 51q-110 -116 -110 -171zM270 210q17 -40 70 -40h10q-44 80 -60 80q-20 -3 -20 -20v-20zM571 651q13 -141 40 -170q61 20 80 20v20 q-20 24 -20 40q40 68 40 140q0 88 -100 240h-20zM631 1011q23 0 60 -30l40 90q-6 0 -50 40q-50 -43 -50 -100zM741 861h10q15 0 50 60v30q0 20 -20 20q-40 -70 -40 -100v-10zM791 691q3 -20 20 -20q70 76 70 120v10q0 52 -30 60q-60 -80 -60 -120v-50z" />
<glyph unicode="P" horiz-adv-x="1120" d="M-159 370v85h8q16 -2 16 -14v-35l-8 -36h-16zM-45 1196q28 0 41 78v28q0 36 -16 86q26 17 65 28q73 -31 73 -106v-8q0 -163 -130 -163q-33 40 -33 57zM28 989q0 6 9 43l-9 36q149 142 261 142v-7q47 39 171 50q109 35 277 64v-7l17 7h98q17 -16 97 -36q147 -119 147 -327 q0 -138 -130 -185q-25 -26 -172 -107h-81q122 -425 122 -577q0 -78 -24 -78h-33q-34 0 -89 -7q-56 0 -106 135l-481 726zM77 1018q25 -32 25 -50q31 10 98 121l24 14q-8 21 -16 21q-51 -18 -131 -99v-7zM151 897q2 -15 16 -15q69 109 90 129q-9 12 -9 28q-7 0 -97 -114v-28z M200 826q16 -43 32 -43h8q16 63 66 114q-17 28 -17 50h-16q-25 -56 -73 -121zM265 705q2 -15 16 -15l73 93q-16 23 -16 43h-16q0 -10 -57 -114v-7zM314 641q30 -43 40 -43q13 0 57 57q-24 64 -40 64q-22 -71 -57 -71v-7zM387 527q8 -14 8 -22h8q16 1 57 64q-12 29 -24 29 q-28 -15 -49 -71zM436 463q16 -64 41 -64q0 9 32 49q-15 57 -32 57q-11 -42 -41 -42zM509 349q51 -100 82 -100v7q-41 135 -57 135q0 -36 -25 -42zM583 911q31 -64 57 -71h32v42q0 8 8 8q-27 99 -49 99q-48 -44 -48 -78zM672 1053q8 -13 8 -21h9q44 0 65 36v7 q-82 -7 -82 -22zM737 975h9q55 28 89 28q-15 57 -32 57h-9q0 -38 -57 -78v-7zM762 882h16q41 17 65 86h-16q-26 -7 -65 -43v-43zM819 527v14q12 135 98 135h8q57 0 57 -100q-57 -31 -57 -71v-99q0 -15 -16 -15h-17q-73 39 -73 136z" />
<glyph unicode="Q" horiz-adv-x="1614" d="M0 769v114q0 126 148 236q316 328 495 328q307 -44 307 -92q355 -203 474 -342q-9 -96 -9 -107q0 -30 19 -183q-19 -54 -19 -83q37 -117 158 -328v-23q0 -64 -59 -91q-274 165 -416 175q-30 -122 -148 -122q-106 -38 -327 -61q-19 8 -29 8l-20 -8q-236 0 -475 244 q-99 244 -99 335zM89 723l20 -7q0 16 188 129l20 53v8h-10q-202 -114 -218 -114l10 -31zM89 868q247 122 247 137l30 68h-10q-267 -124 -267 -205zM109 640q14 -77 39 -77q139 125 139 137q0 31 10 31q-10 13 -10 30q-43 -40 -178 -121zM168 472q14 -31 50 -46h10 q61 45 79 115v15q0 39 -30 45q-109 -86 -109 -129zM208 1058q122 91 198 99q0 34 69 130h-10q-229 -161 -257 -221v-8zM277 365l59 -30q56 41 60 76q-27 51 -60 61h-10q0 -5 -49 -107zM396 305q36 -23 69 -23q49 37 49 83l-59 8q0 -13 -59 -68zM544 274q20 0 20 -8 q79 11 79 92h-69zM594 53q26 114 178 114h19q54 0 80 -38v-7q0 -26 -109 -46q0 -43 -79 -76h-50q-39 12 -39 53zM613 716q0 -130 109 -130h79q0 39 99 145q0 192 -148 282q-139 -99 -139 -252v-45zM673 274h10q188 20 188 53q49 23 49 31h-89q0 -40 -50 -61q-14 0 -29 23 l10 38h-10q-37 0 -79 -84zM831 1066q11 0 79 -46l40 46q0 11 -30 23h-30q-59 -5 -59 -23zM950 944h19q0 22 40 38q30 -8 30 -46q0 -41 -50 -60q0 -92 69 -92h10q-16 244 -79 244q0 -19 -39 -61v-23zM999 1538q23 76 99 76h30q39 0 39 -91v-16l-10 -76q22 0 40 -68 q-10 -46 -50 -46q-148 70 -148 221zM1523 1241v8q0 53 70 53v-76l-10 -15q-60 15 -60 30z" />
<glyph unicode="R" horiz-adv-x="1283" d="M0 903v63q0 21 70 21q91 -42 91 -84q-10 -28 -21 -28q-23 14 -42 14h-84q-14 0 -14 14zM70 1127l105 77q107 74 308 126q212 133 336 133h14q167 0 238 -210q14 -110 14 -175q0 -105 -140 -154l-7 -14q0 -31 210 -364q21 -25 21 -70v-21l-42 -49l7 -49q-73 -32 -105 -91 q-10 -28 -21 -28q-46 7 -154 210q-5 0 -49 56v-7q0 -16 7 -28q0 -7 -7 -7l42 -252q0 -7 -7 -7l7 -35v-49q-88 -60 -147 -119q-55 21 -189 378q-149 311 -364 630q-77 72 -77 119zM147 1106q0 -10 42 -35q41 17 77 84v7q-119 -48 -119 -56zM231 994q2 -14 14 -14h7 q0 30 105 147v28q0 14 -14 14q-98 -80 -98 -147q-14 -2 -14 -14v-14zM273 931q35 -42 42 -42q8 0 91 105q-14 84 -35 84q0 -10 -98 -140v-7zM343 812l14 -7q76 74 84 112q-7 14 -7 21h-14q-77 -98 -77 -126zM399 742q18 -45 35 -49q42 72 42 91v35h-7q-30 -9 -70 -77z M462 637q10 -49 28 -49q35 24 35 77v14q0 11 -28 28zM518 525q0 -35 35 -63h7q21 59 21 77q-14 32 -28 35h-7q0 -14 -28 -49zM567 406q32 -76 42 -77q21 38 21 63q-12 63 -28 63q0 -7 -35 -49zM630 287q23 -98 49 -98q7 42 14 42q0 33 -35 70q-17 -14 -28 -14zM686 1218 q14 -175 42 -175q21 7 21 14q0 56 -63 168v-7zM693 133q14 0 14 -28h14v42h-14q-14 -2 -14 -14zM721 1274q23 0 77 -140l14 -7v35q0 92 -49 126h-28q-14 -2 -14 -14zM777 679q0 -60 84 -154l21 35q-53 62 -98 140h-7v-21zM903 448l14 -7q21 7 21 42q-10 28 -21 28 q-14 -45 -14 -63zM959 378q2 -14 14 -14q21 35 21 56l-14 7h-7zM1022 357q14 0 14 14l-14 7v-21zM1050 847q0 86 70 133h35q10 0 21 -21q0 -15 -56 -154l7 -14q-7 -35 -14 -35q-63 20 -63 91z" />
<glyph unicode="S" horiz-adv-x="1085" d="M0 472v7q0 61 81 85q124 0 147 -107v-14h-6q-21 0 -47 7q-68 -14 -135 -14q-27 10 -40 36zM40 957h7l-7 15q68 158 182 214q11 0 141 100q24 0 188 114q50 15 60 15q46 0 121 -143q87 -77 87 -129v-21q0 -33 -87 -122q0 -18 -13 -35q-68 0 -94 57q-49 150 -108 150 q-22 0 -33 7q-47 -48 -47 -100q0 -72 87 -243h40l34 7v-7q174 33 275 93h7q52 0 141 -143q94 -217 94 -407q-18 -44 -161 -150q0 -26 -114 -86q-64 -143 -235 -143h-21q-315 62 -315 250q41 150 107 150q82 72 87 72h34q49 0 94 -122l27 -21h101q13 0 13 14v57q0 22 -67 214 v8q-249 -39 -249 -79q-42 -57 -80 -57h-14q-66 73 -181 307q-100 112 -101 164zM107 957q7 -13 7 -21q18 0 40 86v14h-6q0 -8 -41 -79zM154 879q7 -14 7 -22q20 0 54 108l-20 14q-20 -41 -41 -100zM215 800h7q33 74 33 93q-17 0 -40 -86v-7zM242 729l20 -15q0 13 40 86 q-6 14 -6 22h-14q0 -46 -40 -93zM296 650q13 -32 26 -36q21 0 34 65v28q-13 18 -13 29h-14q0 -12 -33 -86zM309 250q0 -44 34 -64q2 26 26 43q-30 71 -40 71q-16 -50 -20 -50zM356 564h7q19 8 47 43q-7 14 -7 22h-13q0 -20 -34 -65zM390 129q8 -8 33 -8l20 29q0 11 -40 36 q-13 -37 -13 -57zM470 79l47 -8q28 10 41 36q-32 0 -68 7zM605 64l80 22v14h-33q-37 0 -47 -29v-7zM705 629q30 -57 41 -57q40 43 40 71h-14q-13 0 -67 -14zM772 514h7q9 0 40 58v21q-8 0 -47 -57v-22zM793 464q6 -26 6 -78q41 32 41 93v28q-31 -43 -47 -43zM860 1186 q56 64 114 64q34 -10 34 -50v-28q-31 -115 -108 -115h-7q-27 11 -27 22v71z" />
<glyph unicode="T" horiz-adv-x="1350" d="M0 987v38q136 127 207 127q40 0 340 107q427 101 679 190h17v-6l16 6q59 0 83 -215q-157 -55 -157 -63l-58 6q-75 0 -75 -32q0 -49 8 -88q-10 -122 -24 -140q8 -12 8 -18q-17 -37 -25 -127q0 -6 8 -6l-8 -32v-101q0 -121 -8 -304l8 -32l-8 -12q8 -54 8 -89v-25 q0 -14 8 -25l-8 -13l8 -38v-6q-74 -30 -74 -64q-13 -25 -25 -25h-17q-74 0 -74 95l8 32q-85 0 -108 107q-107 249 -306 532q-25 31 -33 31q-188 -44 -241 -44h-24q-10 0 -67 114q-66 65 -66 120zM58 981q72 57 99 57v31q-99 -59 -99 -88zM99 924q9 -12 9 -19q59 34 83 82 l-17 6q-33 0 -75 -69zM149 861l8 -45h25q0 19 133 120v7h-33q-62 0 -133 -82zM282 835h8q36 0 290 146v12q-182 -39 -182 -82q-99 -52 -116 -76zM315 544q0 63 124 63h8q91 -90 91 -120l-33 -19h-25q-20 0 -24 26h-67q-74 9 -74 50zM439 835l58 -44q36 5 124 95q0 44 -16 44 q-149 -62 -166 -88v-7zM538 728q0 -9 25 -19l83 82v38h-8q-8 0 -100 -82v-19zM588 652q17 0 25 -38h8q58 42 58 88l-8 32h-17zM654 557q0 -25 42 -44h8q17 41 17 56q-15 51 -33 51zM712 456q20 -5 50 -89h8v13q0 27 -33 101q-12 0 -25 -25zM1102 766q19 183 116 183 q23 0 58 -44v-6l-83 -209h-17q-74 18 -74 76z" />
<glyph unicode="U" horiz-adv-x="1501" d="M0 1305v8q11 72 79 72q115 -16 115 -144q-17 -36 -35 -39h-9q-63 0 -150 103zM79 891v8q222 366 494 366h44q41 0 80 -286q105 -341 176 -621l17 8q88 -16 150 -16q36 56 36 143v16q0 234 -291 661v47q0 106 273 223q46 8 53 8q70 0 150 -199q0 -21 158 -374 q62 -180 89 -437q0 -144 -80 -199q-124 -136 -238 -136q-96 -19 -229 -87l-62 -16h-114q-197 0 -353 279q-119 177 -353 612zM141 883q56 -55 62 -55h9q0 19 88 175q-24 60 -44 63h-9q-106 -168 -106 -183zM220 796q24 -64 44 -64q80 95 80 135v40q0 41 -27 48 q-57 -153 -97 -159zM291 660q16 -63 35 -63q88 119 88 191q-13 32 -26 32h-9q0 -34 -88 -160zM370 541q6 -48 27 -48q79 159 79 183q-17 37 -35 40q-71 -148 -71 -175zM432 422q13 -32 26 -32q44 95 62 95h44q0 25 -44 104q-88 -114 -88 -167zM503 318q5 -47 26 -47 q12 0 88 143q-17 0 -26 48q-88 -101 -88 -136v-8zM582 207q12 -33 44 -48h9q44 79 44 88q-23 95 -44 95q-53 -91 -53 -135zM688 119q40 -39 141 -39h35l44 8v7q-165 56 -194 56zM846 1202q17 -37 36 -40h8q8 0 80 79v16q0 16 -18 16h-26q-80 -46 -80 -71zM926 1098 q20 -48 35 -48h18q0 12 53 72q-27 80 -45 80q0 -12 -61 -104zM1014 987q18 -68 18 -80h8q0 49 44 88q-26 43 -26 71h-18q0 -10 -26 -79zM1049 891q0 -11 62 -135h18l8 40v24q0 19 -26 103q-35 -32 -62 -32zM1129 692q26 -63 44 -262q26 0 44 71v16q0 12 -27 24l9 40v48 q0 61 -35 71h-18zM1181 1536v32q0 58 71 103h9q79 -14 79 -48q0 -83 -88 -191q-71 27 -71 104z" />
<glyph unicode="V" horiz-adv-x="1456" d="M0 1108q63 47 125 47q95 0 152 -62v-8q-54 -62 -232 -62q-31 0 -45 85zM152 791v31q0 51 143 162q0 78 80 78q90 54 117 54h18q12 0 143 -194l89 -85h9q81 488 170 589l18 8q30 -21 205 -47l9 -15l-9 -16q73 0 134 -77q109 -53 125 -78q-44 -76 -71 -302q-36 0 -72 -395 l9 -16q-47 -426 -89 -426l-143 31l9 -54v-8q-15 -31 -63 -31h-9l-554 504q0 8 -9 23q9 15 9 23q-254 208 -268 241zM250 798q0 -11 27 -23q90 80 90 85q-14 31 -27 31q-90 -51 -90 -93zM340 721h18q80 39 89 39v15q0 16 -18 16h-9q-35 -41 -80 -70zM420 643l18 -7 q11 0 72 62h-9q-62 -22 -81 -55zM501 558q26 0 26 -23h27q52 25 72 54l-54 47q-71 -41 -71 -78zM608 465q3 -15 18 -15h9q71 36 71 46l-9 16q-76 -39 -89 -39v-8zM688 380l81 -78q62 37 62 47q-29 53 -71 77q-72 -36 -72 -46zM805 752q54 -70 62 -70h9l9 54q-17 -7 -27 -7 l-45 23h-8zM840 822q30 -16 54 -16h9q18 58 18 62h-45l-18 8zM849 240q0 -26 90 -62v16q0 50 -54 70q-16 -8 -36 -8v-16zM903 946h45q0 24 17 93h-35q0 -18 -27 -93zM948 1124l17 -8h18q18 58 18 70h-36zM974 1248h36q18 62 18 77h-36q-11 -12 -18 -77zM1314 512 q0 193 63 193h71q27 -7 27 -46v-16l-72 -193q0 -47 -17 -47h-18q-45 0 -54 109z" />
<glyph unicode="W" horiz-adv-x="2030" d="M0 890q82 123 151 123q61 87 141 87q57 36 255 101h10q45 0 141 -261q33 -30 85 -173q57 -82 123 -210h9q109 448 179 448q0 8 19 8q14 0 57 -36q75 0 75 28q-141 303 -141 355q139 58 151 58q55 50 236 50q141 0 141 -86l302 -962q85 -133 85 -145q-64 -94 -472 -94 q-9 14 -9 22q-19 -3 -19 -15q-89 0 -123 65q-47 69 -198 217h-9l-57 -202q0 -8 10 -8q0 -108 -76 -108q-15 0 -75 14v-7l19 -22v-21q0 -12 -38 -29q-58 0 -274 224q-41 17 -94 87q-318 252 -595 456zM94 883q33 -44 85 -44q19 34 132 130l-47 36q-7 0 -170 -122zM217 803 q38 -36 66 -36l104 101q-16 33 -57 51q-55 -64 -113 -116zM321 723q71 -50 85 -50q56 55 56 101q0 29 -56 29q-85 -70 -85 -80zM443 622l57 -22q0 9 47 58q-21 0 -28 36h-10q-66 -47 -66 -72zM557 557q30 -51 85 -51v37q-45 50 -57 50q0 -12 -28 -36zM689 448 q110 -122 122 -122v7l-113 130zM708 1215v15q56 65 141 65q104 -29 104 -94v-51q0 -99 -132 -159q-38 7 -38 29q0 51 28 108q0 51 -103 87zM1160 174v14q23 87 57 87q113 -32 113 -174q76 -68 76 -79q-47 -17 -47 -22q-169 0 -199 174zM1179 1331q0 -8 29 -65h18 q55 36 85 36v7q-11 73 -37 73q-95 -31 -95 -51zM1217 564q0 -10 28 -21q0 12 57 36q-52 79 -66 79q-19 -70 -19 -79v-15zM1245 1215q0 -23 38 -65q44 22 57 22v7l-10 72h-9q-76 -30 -76 -36zM1302 485q31 -15 57 -15h9q0 40 -38 58q-28 -7 -28 -43zM1302 1071h19 q56 24 56 29q-9 14 -9 21l-66 -14v-36zM1340 1005q0 -14 28 -14q38 11 38 22v29h-19q-31 -22 -47 -22v-15zM1368 933q0 -36 47 -72q14 0 28 22q-9 39 -9 65zM1396 427q0 -43 104 -123v7l-94 123h-10v-7zM1434 825q47 -67 47 -80h10v7q-19 34 -19 73h-38zM1840 1534v14h19 v-14h-19z" />
<glyph unicode="X" horiz-adv-x="1350" d="M0 456q67 129 190 294v8q-158 102 -158 220q0 46 166 179q0 14 134 147q54 73 103 90l31 -9l16 9q40 0 221 -212h8q143 226 166 236h71q81 0 261 -171q-31 -39 -189 -375q145 -182 332 -334v-33q0 -63 -40 -81l-55 8q0 -27 -79 -130q0 -66 -64 -66q0 -8 -15 -8 q-57 8 -317 285l-252 -309h-32l8 -17v-8q0 -58 -158 -130q0 -33 -32 -49q-51 0 -118 139q-108 159 -158 220q-24 47 -40 97zM95 424q55 -77 55 -82l135 25v16q0 18 -8 33q8 15 8 24l-16 -8q-38 0 -127 16q-47 -10 -47 -24zM126 937q29 -15 40 -49q15 0 95 114v9q0 16 -16 16 h-16q-52 0 -103 -90zM134 497h79q40 0 119 -8q20 60 79 147q-136 32 -166 32h-16q-24 -8 -24 -49q40 0 40 -8l40 8h23q59 0 63 -24q0 -26 -86 -41q-69 8 -119 8h-8q-24 -50 -24 -65zM205 277q61 -110 87 -122h8l87 98q-63 50 -63 73q-87 -49 -119 -49zM221 823q8 -24 48 -24 l102 97q-35 49 -71 49l-79 -106v-16zM300 725q69 0 151 -24l39 89l-55 49h-16zM411 187h8l16 25h-16q0 -9 -8 -25zM616 1491q35 147 135 147h8q39 -21 39 -65v-33q0 -9 -79 -73q0 -33 -23 -33q-80 0 -80 57zM640 147q10 59 111 187q55 -40 55 -106q0 -92 -79 -138h-31 q-56 0 -56 57z" />
<glyph unicode="Y" horiz-adv-x="1233" d="M0 650q0 67 157 78h27q52 -31 52 -99l-26 -14h-35q-74 0 -114 -15q-61 6 -61 50zM0 904q0 75 210 318q76 113 114 113q18 7 78 14q109 -133 228 -226q26 0 43 262q35 49 44 49q272 -49 315 -92q87 -23 87 -42v-7q-113 -255 -148 -304q8 -14 8 -21q0 -36 -17 -212 q17 -291 17 -389q-22 -339 -43 -339h-62q-31 0 -78 29h-9q0 -57 -87 -57q-131 0 -158 71q-120 244 -192 628q0 45 -228 113q-87 27 -122 92zM79 918q0 -11 35 -28h17q114 106 114 127q-53 36 -61 36q0 -9 -105 -135zM219 862h8q42 0 123 78l-35 21q-9 0 -96 -99zM332 812 l62 -28h8q88 53 88 64q0 9 -44 35q-57 0 -114 -71zM437 678q104 73 105 78q0 36 -26 42q-79 -39 -79 -106v-14zM463 593q18 -29 18 -42h9q96 62 96 99q-9 14 -9 21h-17q0 -24 -97 -78zM507 452q12 -49 35 -49q0 13 96 91q-17 44 -17 57q-114 -91 -114 -99zM542 332 q22 -71 35 -71q0 14 88 99v50h-18q-46 -78 -105 -78zM603 205q9 -99 44 -99q70 48 70 106q-17 36 -17 56h-18q0 -18 -79 -63zM708 71h9q15 7 35 7v14h-17q-13 0 -27 -21zM1041 897v57q0 110 140 155q46 0 52 -71v-14q0 -48 -96 -99q-13 -91 -35 -91h-18q-26 0 -43 63z" />
<glyph unicode="Z" horiz-adv-x="1124" d="M0 592q0 99 116 137q31 -62 31 -94q-79 -59 -104 -86h-12q-9 0 -31 43zM25 257q140 266 238 515h-73q-25 0 -61 291v52q6 23 171 94q148 120 460 180q0 9 30 26q35 0 74 -69q52 0 73 -137q0 -20 -257 -540h6q65 22 245 120q24 8 49 8q61 0 86 -85q0 -32 31 -120 q0 -112 -160 -146q-248 -146 -569 -292q0 -63 -111 -85q-94 -69 -171 -69h-19q-22 0 -42 257zM98 197q153 114 153 197q9 0 19 26v17q-116 -56 -166 -188q-6 -27 -6 -52zM116 94q156 86 203 86q-41 57 -43 103h-6l-154 -137v-52zM196 995h6q38 51 55 51v9q0 17 -18 17 l-43 -17v-60zM214 900q10 -34 19 -34q37 0 73 86v17q-12 0 -12 8q-33 0 -80 -77zM233 514h6q159 91 159 163q-143 -98 -165 -154v-9zM312 677h7q63 76 140 112q62 121 62 137q-209 -161 -209 -249zM337 866l18 -17q58 29 166 163h-6l-154 -77q0 -31 -24 -69zM925 1055 q37 171 135 171h30q10 0 25 -34v-26q0 -80 -123 -137q-16 -69 -30 -69h-6q-22 0 -31 95z" />
<glyph unicode="[" horiz-adv-x="758" d="M0 1517q8 94 33 94q79 -19 89 -19q71 0 121 93h33q37 0 56 -18q98 37 265 37q119 0 177 -149v-19q0 -111 -66 -150q-11 0 -11 19q-266 -37 -266 -93q-11 -73 -11 -150v-1065q0 -47 288 -93q33 -69 33 -131v-56q0 -112 -232 -112h-11l-23 18q0 -37 -22 -37h-11l-22 19 q0 -89 -276 -131h-33q-52 0 -78 729l11 93q-11 248 -11 411l11 38q-11 32 -11 74q0 238 -33 598z" />
<glyph unicode="\" horiz-adv-x="569" d="M0 1023v23q0 54 47 205q34 195 59 216q61 -121 319 -751q72 -182 114 -363q27 -46 27 -126q0 -85 -80 -227q-25 0 -132 296q-85 133 -227 489q-62 83 -92 159l-17 -11q0 26 -18 90z" />
<glyph unicode="]" horiz-adv-x="758" d="M0 1216v31q73 135 73 157h42l31 -31q23 0 42 16q10 0 10 -16q148 47 354 47h21q107 0 125 -455q0 -130 -21 -675q0 -252 73 -534l-21 -16l11 -31q0 -59 -438 -79q0 -16 -167 -47q-114 0 -114 173q0 157 187 157q44 0 105 47l-11 188q0 53 11 79q-11 85 -11 141v220 q0 35 -10 63q0 15 10 15q-14 262 -21 283q0 16 11 16l-11 78v47q-119 -31 -166 -31q-115 26 -115 157z" />
<glyph unicode="^" />
<glyph unicode="_" horiz-adv-x="1024" d="M-33 -106q24 32 48 32q240 0 432 -8q8 0 8 4l80 -4q462 0 504 -32v-32q0 -34 -32 -60q-224 -4 -320 -8q-89 4 -232 4h-32q-18 0 -32 -4l-16 4q-87 -4 -152 -4h-24v8h-8q0 -12 -16 -12q-160 13 -160 56q-11 4 -48 56z" />
<glyph unicode="`" horiz-adv-x="1024" d="M168 1300v6q0 14 46 52q33 49 57 54q59 -31 309 -189q70 -46 111 -91q26 -12 26 -32q0 -21 -77 -57q-25 0 -129 74q-82 34 -220 123q-60 21 -89 40l-17 -2q0 6 -17 22z" />
<glyph unicode="a" horiz-adv-x="922" d="M-4 381v113q0 253 242 479q93 88 236 88h14q147 0 147 -114q93 0 118 -277q0 -223 51 -277h15q7 76 22 76h7q59 -55 59 -139q-28 -201 -103 -201h-22q-48 0 -125 201q-136 -227 -250 -227q-58 -113 -132 -113h-81q-88 0 -191 315zM84 469q35 0 74 63v12l-37 -12h-29z M92 318q2 -26 14 -26q30 26 44 26v50q-55 -25 -58 -25v-25zM128 658q70 0 162 189h-7q-63 0 -155 -177v-12zM143 192q33 -76 95 -76h45v13l-111 100q0 -37 -29 -37zM371 444l51 -26h30q93 0 139 315h-51q-123 0 -169 -252v-37zM474 -48q24 164 95 164q37 -13 37 -50 q0 -63 -44 -63v-63q0 -93 -22 -101q-66 16 -66 113zM613 1237q15 93 52 126h36q11 0 22 -38v-50q-22 -177 -22 -202h-14q-60 0 -74 164z" />
<glyph unicode="b" horiz-adv-x="995" d="M0 1197q0 131 57 131h24q113 -79 113 -219l-24 -29h-49q-121 44 -121 117zM226 1328v102q131 307 210 307h24q121 0 186 -861q39 29 97 29q250 -112 250 -409q8 0 8 -44q0 -369 -161 -452q-37 0 -202 146h-8q0 -29 -16 -29h-41l-48 14l-57 -43q-89 0 -89 481 q0 136 -153 759zM283 1299l16 -14q11 0 40 72v132q0 29 -16 29q-40 -150 -40 -219zM323 1168l24 -29l40 43q-16 48 -16 88h-8q-9 0 -40 -102zM363 1036q19 -102 33 -102l32 88v44q0 29 -16 29h-8zM404 817l8 -29q33 29 48 29v88h-16q-11 0 -40 -73v-15zM428 642l8 -29l48 29 q-8 24 -8 73h-24q-12 0 -24 -44v-29zM444 409q18 0 32 -15l8 29v117q-26 -29 -40 -29v-102zM460 277q8 -28 8 -43h16v73q-24 -15 -24 -30zM686 1212q24 160 81 160h8q48 -9 48 -44v-73q0 -25 -56 -87q-8 -117 -24 -117h-8q-49 73 -49 161zM727 482q0 -115 40 -175h8 q24 93 24 145q-13 190 -56 190q-16 -53 -16 -117v-43z" />
<glyph unicode="c" horiz-adv-x="905" d="M0 371q0 406 386 619q72 28 153 28h63q93 0 143 -110v-14q-15 -261 -107 -261q-180 0 -180 -138v-14q0 -68 251 -96q0 -53 54 -165v-69q0 -78 -179 -96q-134 -55 -288 -55h-18q-212 0 -278 371zM81 454h18l108 55v55q-49 -47 -117 -83zM90 344q9 -27 9 -41q126 37 126 68 v14l-9 28q-26 0 -126 -69zM90 963v27q0 44 27 124l-9 27v42q0 21 36 55h27q54 -50 54 -165q0 -119 -108 -138h-9q-18 0 -18 28zM135 220q0 -18 90 -96h98v14l-81 137q-61 -55 -107 -55zM135 633h9q89 41 89 96v14q-47 0 -98 -97v-13zM754 550v55q0 119 63 179h18 q66 0 72 -41v-42q0 -50 -99 -220q-37 19 -54 69z" />
<glyph unicode="d" horiz-adv-x="1040" d="M0 300v100q0 321 393 438h47q19 107 19 188l-10 50q0 12 10 12l-10 63v150q0 246 225 375q0 38 112 38q144 0 169 -263v-12l-84 -601v-112q28 -484 28 -576l-19 -12h-9q-103 29 -103 112h-10q-94 -175 -215 -175q-84 0 -262 -75q-187 0 -281 300zM94 350q9 -22 9 -50 q94 34 94 100v13h-10q-58 -63 -93 -63zM94 463h9q131 50 131 75v12q-140 -42 -140 -87zM150 225q22 -87 112 -87q-56 103 -56 125h-9zM243 1176v13q0 16 47 62h56q66 -61 66 -138q0 -103 -56 -162h-10q-59 0 -84 162q-16 0 -19 63zM281 663l37 -12l38 62q-71 -25 -75 -25 v-25zM459 450q12 -125 93 -125q56 45 56 150v63q-59 25 -74 25q-75 -34 -75 -113zM534 1201h9q84 54 84 113l-19 12q0 -27 -74 -125zM543 813h103v38q0 137 -28 137q-40 -48 -56 -150q-19 -4 -19 -25zM543 1088q9 -37 19 -37q65 37 65 113q-47 0 -84 -76zM552 1414h10 q103 71 103 137h-10q-12 0 -103 -137zM889 651q0 110 75 212h47q28 0 28 -50l-103 -225q-13 0 -47 63z" />
<glyph unicode="e" horiz-adv-x="909" d="M0 392v81q0 161 149 372q159 201 306 201q221 0 306 -262v-90q0 -79 -174 -111v10q-223 -35 -223 -50v-10q53 -151 116 -151q27 6 132 121h25q133 -30 133 -81v-20q0 -50 -108 -201q-215 -201 -331 -201q-273 126 -273 231q-58 113 -58 161zM83 462q8 -30 16 -30l58 20 l-8 21v20l8 20l-16 10q0 -9 -58 -61zM108 593h8q20 20 33 20q0 72 16 111h-16q-41 -100 -41 -131zM116 312h33q13 0 33 40v20h-33q-13 0 -33 -40v-20zM165 221q0 -20 50 -30q33 15 33 30v10q0 8 -25 30q-49 -30 -58 -30v-10zM290 141q0 -23 41 -30l50 10q0 16 -67 40 q-16 -10 -24 -10v-10zM372 734q124 50 224 50v10q0 28 -83 41q-74 0 -141 -91v-10zM405 1207v40q0 37 125 50h16q20 0 58 -131q0 -50 -91 -80zM753 553v50q0 82 99 121h17q13 0 33 -40v-71q-73 -80 -141 -80z" />
<glyph unicode="f" horiz-adv-x="559" d="M0 277v107q2 18 10 18q0 -14 20 -36q41 90 71 90q0 61 -5 107q0 333 131 439q35 18 61 18h15q128 -80 172 -125q37 -71 86 -233q5 0 5 -9v-27q0 -107 -111 -107h-20q-14 0 -56 161l-15 18h-5q-51 0 -51 -99v-27q0 -97 15 -197l91 27q37 0 56 -80q0 -90 -81 -90 q-55 0 -55 -27q15 -359 15 -403v-99q0 -98 -15 -98q-9 0 -31 18v-9l5 -45l-10 -9h-25q-50 130 -126 439h-76q-31 16 -41 269l5 45q-22 -36 -35 -36zM81 232q3 -81 10 -81q21 13 30 45v27l-5 45h-5q-30 -24 -30 -36zM81 313h5q100 92 101 107q-5 17 -5 27q-90 -81 -96 -108 q0 -9 -5 -26zM101 71h10l46 9q0 -18 15 -18q60 29 60 89l-10 9h-10q-75 0 -111 -89zM152 501h5q7 0 15 27v89h-10q-10 -3 -10 -18v-98zM157 1065q25 69 35 126q-10 66 -10 89q26 45 45 45q31 0 41 -90q-19 -197 -81 -197q-26 0 -30 27zM162 698q40 27 40 89v9h-5 q-35 -28 -35 -80v-18zM182 322h15v17h-5q-10 -2 -10 -17zM197 -1q5 -27 10 -27l41 45q-5 16 -5 36h-5q-41 -40 -41 -54zM212 859h20q7 0 41 72h-5q-56 -30 -56 -72zM222 -100q5 -17 5 -26h5l26 9v17l-5 45h-5q-7 0 -26 -45zM258 -189q6 -67 20 -72q-10 67 -10 72h-10z M359 -1v18q0 77 50 143h16q30 -5 30 -27v-26q-61 -72 -61 -153q0 -36 -10 -36h-5q-20 12 -20 81z" />
<glyph unicode="g" horiz-adv-x="899" d="M-47 376q0 384 336 644q218 11 264 11q26 0 72 -45l-8 113v45q17 181 104 181q40 -18 40 -68q-23 -179 -72 -260q0 -45 -32 -45q76 -120 208 -621h8l-8 -45q24 -180 24 -271v-80q-55 -305 -176 -305q0 -11 -152 -56q-8 0 -8 11q-28 -11 -32 -11q-176 34 -176 226 q26 192 112 192q50 0 120 -169l40 -12q8 136 16 136q-24 305 -80 305q-173 -181 -296 -181q-217 0 -304 305zM49 433q136 95 136 169l8 68l-16 11q0 -49 -112 -102q-16 -45 -16 -146zM73 -121q0 124 72 124q160 -49 160 -158v-11l-16 -11q-132 11 -200 11zM89 297 q0 -18 40 -56q81 41 104 90q-27 90 -40 90q-104 -107 -104 -124zM201 817h40q0 34 32 79v11q-39 -26 -72 -90zM225 218l8 -23q104 38 104 79l-40 12q-62 -68 -72 -68zM337 568q0 -73 72 -90h16q78 0 96 169q-16 113 -80 113q-80 0 -104 -192zM385 241h8q14 11 32 11v11h-32z M593 331q22 0 48 -34h8q0 45 48 102v34q0 22 -16 22l-88 -113v-11zM681 229q16 -72 16 -79q48 40 48 57q0 22 -16 113h-8q-14 0 -40 -91zM705 37q16 -133 16 -169h16q40 94 48 158q-8 19 -8 56h-8q-39 -45 -64 -45z" />
<glyph unicode="h" horiz-adv-x="1104" d="M0 1250v68q0 110 207 295q34 91 104 91q28 0 62 -23q4 23 21 23q31 0 145 -602q42 -237 62 -307q74 57 94 57q127 0 301 -216q124 -312 124 -443q0 -65 -41 -125l-52 12q-135 -46 -177 -46q-83 0 -134 341h-11l-10 -57v-23q0 -78 21 -215q-28 -73 -52 -80q-145 0 -145 91 q0 11 10 11l-21 114h-21l-20 -12q-132 459 -280 659q-187 268 -187 387zM21 613q20 125 103 125h32q101 0 134 -159v-11q0 -16 -31 -34h-62q-176 50 -176 79zM73 1227q47 68 72 68v11l-21 80h-10q-41 -117 -41 -159zM124 1091q0 -17 32 -35l62 91q-31 77 -31 91h-21 q-29 0 -42 -113v-34zM187 988q23 0 31 -56h21q0 20 41 90q-25 80 -41 80h-11q-41 -94 -41 -114zM280 841q31 0 31 -46h10q15 0 32 34v34q0 59 -32 69h-10q-31 -70 -31 -91zM373 716q21 0 21 -34h21v34q0 22 -21 22q-21 -3 -21 -22zM436 602l31 -114h10v12q-21 85 -21 102 h-20zM633 1147q52 171 124 171q39 0 83 -68v-12q0 -40 -93 -159v-91h-11q-103 50 -103 159zM767 454q32 -37 32 -56h10q21 0 21 22v12l-11 56h-20q-15 0 -32 -34zM819 261q38 -136 73 -136h10q0 78 -62 170q21 0 21 23h-31z" />
<glyph unicode="i" horiz-adv-x="514" d="M23 447v36q7 27 43 27h36q57 0 71 -100q-15 -55 -29 -55q-121 21 -121 92zM80 738q60 301 172 301q178 -33 178 -191v-28q0 -42 -50 -155h7q85 0 122 -118q14 -73 14 -91v-356q-18 -37 -71 -73l-36 9h-7q-79 -36 -86 -36q-64 0 -64 91v119q0 39 -36 264v36q0 51 129 92 q0 9 7 27h-7q-26 -27 -122 -46q-150 31 -150 155zM159 775h7q36 45 57 45v82h-7q-57 -57 -57 -109v-18zM187 684h7q33 0 50 91l-14 9q0 -32 -43 -91v-9zM237 1221q20 128 79 128q28 0 50 -46v-72q-14 -119 -43 -119h-36q-50 42 -50 109zM266 684h28v18h-14q-14 -3 -14 -18z M280 456l7 -46q65 12 65 82v28q0 18 -15 18h-14q-43 -32 -43 -82zM309 328q2 -18 14 -18q31 55 57 55v27q0 18 -14 18zM323 137h7q48 54 64 54v73q0 19 -14 19l-57 -73v-73z" />
<glyph unicode="j" horiz-adv-x="510" d="M-6 404q0 150 198 183q78 0 127 -83q-51 -211 -98 -211q-32 -34 -93 -49q-134 0 -134 160zM40 410h6q24 9 24 38q-6 11 -6 17q-13 0 -24 -50v-5zM52 321h12q33 18 46 39v11q0 8 -17 17q-41 -50 -41 -67zM87 -133q26 39 58 39h6q36 0 110 -67q-13 -39 -23 -39 q-151 21 -151 50v17zM93 127q0 52 197 150q22 11 47 11h17q44 0 146 -449v-39q0 -108 -93 -216q-42 -33 -93 -33q-140 35 -140 122v5q0 39 29 39q37 -11 41 -11q29 0 41 78q0 82 -93 232q-85 70 -99 111zM116 293h12q35 0 81 56l-52 5zM151 127q36 -39 41 -39q23 39 23 56 v11q0 14 -23 16q-41 -18 -41 -44zM238 44q0 -42 29 -61l6 67q-12 33 -23 33h-6l-6 -28v-11zM267 -327v-6l29 -5h23q70 53 70 94q-6 10 -6 22q-38 -16 -93 -105h-23zM285 -61q5 -39 17 -39h12q17 36 17 55v6q-12 13 -12 22h-5q0 -16 -29 -44zM325 -172v-22h6q26 10 47 39v27 q-12 14 -12 22q-41 -42 -41 -66zM401 338v22q0 39 58 61l12 -6l11 6q35 -13 35 -22q-31 -150 -46 -150q-57 0 -70 89z" />
<glyph unicode="k" horiz-adv-x="1026" d="M0 861l7 32v25q17 0 157 110l52 19q41 -7 59 -7q128 39 179 39q54 0 59 -19q-7 -129 -7 -193h7q25 0 201 167q40 26 67 26h30q53 0 119 -109v-7q0 -19 -112 -90l-119 -128q221 -215 342 -251l8 -13v-51q-39 -47 -60 -116q-46 0 -141 -96q-42 0 -283 148q-13 6 -30 6 q-14 -2 -14 -13q0 -6 7 -6l-7 -45q0 -102 14 -161q0 -50 -52 -96h-15q-96 51 -96 116q-228 509 -372 713zM52 450q0 77 30 77q82 -31 82 -135v-7q-12 -70 -38 -70h-14q-40 0 -53 25v45q0 31 -7 65zM59 873q71 0 134 71h-7q-127 -37 -127 -71zM112 822l22 -38q30 15 89 57v26 q0 13 -22 13q-75 -34 -89 -58zM164 706q38 0 89 45q-15 27 -15 39h-7q-67 -41 -67 -71v-13zM201 655q30 -54 30 -71h7l52 26l-22 84h-8q-51 -39 -59 -39zM253 507q15 0 52 -51q14 6 22 6v7q0 42 -22 83q-52 -30 -52 -38v-7zM335 392q15 -60 37 -64q-17 83 -37 83v-19z M528 488q0 -4 7 -83h8q36 0 74 45v12q-68 26 -89 26zM617 379h30q10 0 45 38h-8q-48 0 -67 -38zM706 340q0 -9 30 -19q22 32 45 32v20q-12 0 -30 12q-45 -41 -45 -45zM781 295q12 -25 52 -25h7q0 15 37 38q-14 0 -44 26h-8q0 -27 -44 -39zM855 700v26q32 109 119 109 q37 -28 37 -39q-59 -56 -59 -115q-15 -19 -30 -19q-39 0 -67 38zM907 0v13l52 13h23q44 -4 44 -20l-15 -6h-104z" />
<glyph unicode="l" horiz-adv-x="522" d="M0 1360v50q74 318 228 318h7q123 0 147 -623q7 -266 14 -266l-7 -64v-152q-27 -623 -107 -623h-20q-88 51 -88 102v139q0 217 -147 826q-27 184 -27 293zM60 140l20 152q-13 42 -13 76l34 51h20q18 0 27 -127q-16 -190 -34 -190h-13q-35 0 -41 38zM74 1347h6q37 51 61 51 v101q0 19 -20 38q-47 -69 -47 -139v-51zM87 1169q22 0 61 114q-7 25 -7 38h-7q-30 -76 -47 -76v-76zM107 1042q14 -76 27 -76q27 53 27 127l-7 63h-6q-16 0 -41 -114zM154 864q27 -107 40 -241h7v12q0 30 -27 254h-6q-14 -4 -14 -25zM416 1118v76q0 178 67 178h27 q13 -4 13 -25q-20 -305 -80 -305h-7q-20 13 -20 76z" />
<glyph unicode="m" horiz-adv-x="1569" d="M0 786v28q0 110 237 170h66q138 0 199 -179h19q0 62 179 85q152 -25 152 -85h9q149 123 294 123q312 -67 312 -313q38 -82 38 -113v-76q0 -39 -9 -76q9 -98 28 -161q-59 -94 -170 -94q-86 -38 -133 -38q-95 0 -95 208l-56 189h-19v-28q0 -30 28 -180q0 -83 -189 -132h-19 q-13 0 -57 56q0 445 -170 445h-10q-19 -77 -19 -104q38 -281 38 -360q-14 -151 -132 -151h-29q-19 0 -28 114q-121 272 -171 340q-283 185 -284 265zM38 246q38 76 104 76h57q132 -16 132 -85q-14 -76 -75 -76q-6 0 -48 38q-65 -19 -113 -19h-10q-22 5 -47 66zM104 738 q19 -30 19 -47h10q49 33 66 76q-19 43 -38 47h-19q-28 0 -38 -76zM199 634l19 -9h28l85 57q-14 37 -28 37h-28q-76 -62 -76 -85zM303 558q16 0 47 -28h10q47 22 47 47q-22 57 -38 57h-9q0 -38 -57 -47v-29zM407 445q22 0 28 -47h10v9q-10 52 -10 76h-19zM1079 577l38 -9 q0 10 66 57v9h-9q-95 -11 -95 -38v-19zM1155 511q22 -47 47 -47q39 13 57 47v38q0 14 -28 28q0 -45 -76 -56v-10zM1164 1136q29 104 95 104h28q19 -3 19 -19v-142q0 -104 -28 -104q-99 0 -114 161zM1212 369q9 -84 9 -104q42 0 66 95l-9 56zM1249 142h10q38 14 38 28v38h-19 q-14 0 -29 -28v-38z" />
<glyph unicode="n" horiz-adv-x="1108" d="M0 218v40q0 33 134 49q57 -73 57 -119v-29q0 -70 -67 -70q-17 0 -48 70q-76 46 -76 59zM0 585v169q98 267 287 267q82 0 153 -188q19 -50 19 -69h10q46 129 210 129q187 0 373 -229q42 -152 57 -178l-9 -69v-209q0 -89 -96 -89q-33 -10 -38 -10v10q-109 -20 -153 -50 q-64 22 -96 70v79q0 72 -95 208q-29 0 -29 -208q19 -91 19 -109q0 -85 -268 -109q-105 20 -105 50v69q0 183 -239 466zM86 615h10l86 99q-36 74 -58 79q-38 -99 -38 -119v-59zM163 545q9 -29 19 -29q74 59 86 59v20q0 14 -29 30q-39 -63 -76 -80zM239 417q10 -20 10 -30h19 l76 49q-12 50 -28 50q0 -7 -77 -69zM306 307q29 -89 29 -119h19v129zM469 1081v20q0 146 172 168q47 -13 47 -69v-40q0 -119 -181 -188q-38 59 -38 109zM564 526h10l28 19h20l57 -39q12 0 76 79q-30 28 -76 40q-115 -34 -115 -99zM755 407q10 -18 10 -40h10q0 23 38 99v10 h-10q0 -22 -48 -69zM803 307q14 -119 58 -119v110q0 19 -20 19q-16 -10 -38 -10zM1138 208v99h19v-99h-19z" />
<glyph unicode="o" horiz-adv-x="1010" d="M0 436q0 389 418 554q87 23 87 29q214 0 311 -107q0 -22 107 -97q97 -112 97 -204q10 -35 10 -107v-19q0 -181 -311 -340q-14 -101 -360 -126q-273 0 -359 417zM49 -88q25 87 87 87q135 10 175 10q68 -14 68 -39v-39q0 -39 -243 -97q-87 18 -87 78zM107 397l10 -19 q62 39 87 39v29q0 19 -29 19q-49 -29 -68 -29v-39zM126 543q97 20 97 126h-29q-35 0 -68 -126zM155 281q3 -20 20 -20q58 10 58 30v19h-10l-68 -19v-10zM253 184q0 -26 145 -49q13 10 68 10v10q-35 0 -165 48q-31 -19 -48 -19zM427 465q0 -136 127 -136h39l48 10v10 q-87 0 -87 29q22 68 29 68q-68 188 -68 194l19 10h10q146 0 146 -233h9q30 74 39 155q0 136 -136 136q-175 -36 -175 -204v-39zM797 1068q0 116 97 136h9q68 0 68 -59q0 -155 -126 -174h-10q-38 45 -38 97z" />
<glyph unicode="p" horiz-adv-x="1010" d="M61 278v54q0 113 48 143q59 26 136 109q53 23 109 34q213 0 246 -81q34 -68 34 -150q0 -150 -198 -212h-21q-41 0 -102 34v-6q28 -88 68 -307q55 -79 55 -184q-21 -123 -116 -123q-44 0 -123 48q-109 0 -109 197q7 208 7 266zM88 727l41 55h14q59 0 68 -89v-27 q-28 -95 -55 -95h-47q-14 0 -14 13v28l21 27q-28 54 -28 88zM102 346q7 -36 7 -41h7q14 0 47 68l-34 27q-27 -29 -27 -54zM129 243q21 -42 21 -68h6q28 11 28 48l-7 34zM143 -186q0 -116 61 -116q10 41 34 41l-7 14l7 95h-7q-47 -34 -88 -34zM156 100q2 -82 14 -82 q23 10 41 28q-7 60 -7 75h-7q-28 -14 -41 -14v-7zM163 -125h7q41 28 61 28v27q0 48 -13 48l-48 -7v-82zM306 387q0 -17 69 -34v6q0 73 -48 116q-21 -7 -21 -41v-47zM375 -2q0 130 156 143h14q20 -7 20 -41v-7q0 -47 -47 -47l-48 13q-30 -74 -41 -75h-34zM395 496 q27 -58 27 -116h7q10 0 21 20l-28 41v7l14 20v7q-7 21 -41 21z" />
<glyph unicode="q" horiz-adv-x="1024" d="M10 169v286q86 216 258 304q29 28 203 37q13 25 74 28q192 0 249 -194l27 -36q0 -189 37 -323l129 27q37 -19 37 -46q-63 -101 -147 -101q0 -37 138 -360q9 -63 9 -101v-9l-55 -166q-18 -46 -120 -74q-230 0 -230 507q0 46 -83 102q-136 -47 -185 -47q0 19 -18 19h-139 q-105 0 -184 147zM65 262q10 0 10 -10q56 39 129 93v36q0 19 -19 19q-120 -76 -120 -138zM84 409h9q101 68 101 148q19 30 19 46q-118 -105 -129 -194zM111 179l19 -10q51 0 147 93q-6 27 -36 36zM231 123l65 -9l74 83v9h-19q-54 0 -120 -83zM305 -135q0 62 111 83v-9l18 9 q65 -18 65 -74v-9q-37 -55 -176 -55q-18 30 -18 55zM370 105h18q148 42 148 83v18q-83 0 -166 -101zM453 483q0 -111 83 -111h18q0 72 -74 212h-18l-9 -92v-9zM526 612q59 0 83 -166h19q18 67 18 138q-12 83 -83 83q0 -37 -37 -37v-18zM628 169h18q66 46 83 46l-9 65h-9 q-40 -21 -83 -111zM665 -6q3 -18 18 -18q0 27 28 74h-9q-23 -19 -37 -19v-37zM683 -135h9q24 9 83 92l-9 46h-9q-74 -116 -74 -138zM702 -218v-74h9q0 21 83 120v19q-59 -65 -92 -65zM729 -328v-10q0 -110 74 -110q55 56 55 92q-20 25 -37 92h-18q-23 -64 -74 -64zM738 68 h19v18q-19 -2 -19 -18zM867 -467v-9q57 20 65 55l-18 10q-12 0 -47 -56zM904 520q56 129 148 129h9q19 -3 19 -19v-73q-40 -72 -120 -139h-10q-46 44 -46 102z" />
<glyph unicode="r" horiz-adv-x="692" d="M0 749q0 165 140 234q43 38 103 38q132 -68 132 -169q100 84 131 84q98 0 140 -149v-10q0 -112 -159 -112h-9l-10 -47v-37q0 -73 113 -450v-103q0 -19 -19 -19h-84q-10 0 -10 10l-18 -10l-38 28h-9q0 -37 -28 -37q-56 12 -178 309q-131 124 -188 347zM56 712h10 q65 47 65 75q-19 30 -19 46h-28q-28 -72 -28 -103v-18zM84 571h10q75 63 75 113q0 18 -19 18q-66 -80 -66 -112v-19zM140 468l29 -18h28q46 26 46 56q-28 52 -28 75h-9q-66 -69 -66 -113zM206 1217q28 66 94 66q113 0 131 -197v-37q-10 -28 -56 -28q-38 0 -103 103 q-66 33 -66 93zM225 365q37 -64 37 -75l47 38q-19 70 -19 75h-28q0 -38 -37 -38zM300 215q43 -65 56 -65v19q0 71 -38 84h-9zM375 84q9 -18 9 -28h9v47q-18 -3 -18 -19zM562 384q65 234 168 234q43 -18 47 -37v-38q0 -31 -103 -168q0 -47 -18 -47h-57q-37 19 -37 56z" />
<glyph unicode="s" horiz-adv-x="702" d="M0 649v14q0 70 147 217q186 132 209 132q12 7 35 7q111 0 153 -126l21 -97q-16 0 -41 -42l-105 -14q-27 53 -49 63q-88 -72 -91 -112q35 -79 56 -84h14l126 14q184 0 216 -181q7 -39 7 -56v-126l14 -7q-50 -251 -244 -251q-216 0 -273 209v35q47 133 161 133q0 12 35 14 h7q49 0 98 -98l14 -7q55 3 55 56q-18 133 -69 133h-49q-100 0 -133 -63q-12 -7 -28 -7q-21 7 -21 14q-25 -14 -56 -14q-169 0 -209 244zM14 272q25 105 98 105q59 0 83 -42v-28l-90 -49q-11 -28 -21 -28h-42q-14 0 -28 42zM70 649q7 0 7 -7q22 14 35 14v70h-7q-18 0 -35 -77 zM84 565h7q51 0 56 21v7q0 10 -21 21l-42 -42v-7zM119 510q0 -11 28 -28h7l34 28q11 0 21 -21l-7 -35l14 7h42v14q-21 0 -97 62q-24 -20 -42 -20v-7zM251 195h14q4 0 42 35q0 10 -14 77h-14q-28 -54 -28 -70v-42zM293 133l42 -35l35 49q-14 17 -14 28q-63 -34 -63 -42z M398 77q37 -7 42 -7l21 28q0 14 -21 14q-29 -10 -42 -35zM510 56q69 19 69 56h-7q-52 -12 -62 -49v-7zM572 768q30 98 105 98q32 -14 35 -28q0 -65 -91 -133h-7q-42 26 -42 63z" />
<glyph unicode="t" horiz-adv-x="674" d="M0 731v121q0 77 57 166q-19 0 -38 112v37q0 118 132 213q48 64 120 64h7q37 -41 37 -120v-93q73 102 114 102h32q50 0 82 -55v-10q-46 -62 -82 -148q-26 0 -108 -120q46 -482 95 -482q0 -11 44 -55h19q54 0 76 130q-19 66 -19 83l6 18q-19 63 -19 102v9q0 88 120 102h6 l13 -27v-278q-28 -58 -63 -195q-90 -139 -196 -139q-26 -40 -101 -55h-44q-110 0 -158 333q-6 36 -6 74h-6q-120 0 -120 111zM50 787q13 -57 13 -74h101q0 21 19 55v10l-13 -10h-19q-34 0 -50 47v46q0 7 95 139q-7 28 -13 28q-82 -111 -95 -111q-25 0 -38 -130zM88 1139h7 q0 18 25 65l-13 9l-19 -46v-28zM107 56l7 64v121q0 13 18 27q60 0 70 -129v-19q0 -95 -44 -120q-27 12 -51 56zM139 1083h6q9 0 19 28v9q-10 0 -25 -37zM183 546q8 -46 19 -46q44 159 44 231l-13 10q-39 -118 -50 -195zM221 389q46 -74 50 -74l13 111q-9 92 -25 92 q-38 -110 -38 -129zM303 287l44 9v10q0 12 -32 37q-12 -31 -12 -56zM568 1102v28q0 129 94 129q32 -13 32 -65v-9q0 -62 -76 -204h-6q-44 40 -44 121z" />
<glyph unicode="u" horiz-adv-x="1059" d="M0 921v56q27 49 142 49q116 -30 116 -73q-21 -65 -151 -65h-45q-48 0 -62 33zM53 791q236 114 258 114h36q92 0 160 -283q87 -208 142 -226v8q0 239 -151 525v16q227 161 267 161h44q151 -28 151 -113q60 -124 98 -541h-9l9 -16q0 -165 -204 -379q-116 -57 -169 -57h-27 q-268 0 -409 210q-107 192 -196 581zM160 711l9 -41q98 55 98 105h-9q-47 0 -98 -48v-16zM187 590q16 -73 35 -73q6 0 71 73v40q0 16 -17 16q0 -7 -89 -56zM249 412q27 -55 27 -65q11 0 89 81v16q0 42 -27 49q-12 0 -89 -81zM320 267q44 -92 71 -97h9q89 78 89 105 q-62 58 -62 80h-18q0 -34 -89 -88zM462 121l63 -16h9q16 3 71 73v8q-18 0 -71 40q-27 -46 -72 -89v-16zM605 913l26 -73h9q45 36 45 65q-14 32 -27 32q-53 -5 -53 -24zM622 81q85 0 196 56v8l-89 -8h-53q-36 -16 -54 -48v-8zM640 1236q36 137 134 137q80 -13 80 -32v-65 l-143 -137h-26q-31 0 -45 97zM667 767q18 -51 18 -64h9q13 0 35 32v24l-9 41h-9q-44 -27 -44 -33zM711 638q27 -181 45 -234h9q17 73 17 105l-17 -8h-9q-18 0 -18 16q0 34 36 105q-9 16 -9 24z" />
<glyph unicode="v" horiz-adv-x="993" d="M0 518q0 323 226 391h28q120 0 197 -146l179 -236v191l9 54q0 10 -9 10l9 45v73q0 127 57 127q18 9 28 9v-9l19 9q75 -22 75 -145q0 -31 -28 -200q0 -18 9 -18l-9 -46v-109q0 -50 -10 -127q0 -9 10 -9l-10 -46v-27l10 -91h-10q10 -16 19 -82q-20 0 -38 -81q-47 0 -84 -55 h-19q-66 0 -310 209q-79 28 -301 218q-33 41 -47 91zM94 573q0 -23 19 -82h9q19 100 19 109l-38 18l-9 -18v-27zM197 418l29 -18q9 80 9 100v45h-9q0 -49 -29 -127zM310 364q19 -55 38 -55h9q19 0 19 18v37q0 49 -47 72h-9q0 -22 -10 -72zM338 1045q0 73 76 73h9 q110 0 141 -164q-19 -29 -19 -45q-94 17 -207 136zM442 254q0 -13 28 -27l9 18v28q0 18 -18 18q-19 -3 -19 -18v-19zM545 173q0 -13 47 -46v9q-18 42 -37 46h-10v-9zM837 318v64q21 199 112 218h29q18 -3 18 -18v-91q-33 -30 -75 -200q-9 0 -9 -9q-75 11 -75 36zM978 1100 v36q18 -3 18 -18v-18h-18z" />
<glyph unicode="w" horiz-adv-x="1415" d="M0 711v129q0 10 30 20h31q182 -35 182 -74v-14q0 -20 -132 -27q0 -5 -81 -34h-30zM40 522q39 176 193 176q0 41 242 74q149 0 294 -264q54 -68 91 -81q20 189 20 210q0 42 -81 108q-30 96 -30 136v20q0 85 131 108q154 54 182 54h30q129 0 162 -298q10 0 30 -81h-10 q61 -192 81 -332q0 -101 -121 -101q-87 -41 -172 -41q-9 0 -61 27h-20q0 -42 -182 -88q-84 -61 -152 -61q-102 0 -151 102q-50 42 -385 223q-68 53 -91 109zM162 522q21 -75 81 -75l-10 14v20q0 24 30 81l-71 34h-20l-10 -47v-27zM283 413q19 0 91 -34q41 95 41 109 q-36 40 -51 40q-17 0 -51 -95q-14 0 -30 -20zM293 1158l20 7h162q20 0 20 -20q-30 -75 -60 -75h-20q-114 50 -122 88zM445 332q0 -11 40 -27q23 0 31 74q-14 48 -41 48h-10q-20 -61 -20 -88v-7zM546 264q12 0 142 -101l50 6v7q-44 57 -172 156q0 -26 -20 -68zM829 867 q7 -41 31 -41q91 79 91 102v20h-11l-40 -20h-71v-61zM839 34v20q0 79 192 95q71 -4 71 -41q-83 -9 -151 -74q-20 -31 -41 -34q-65 18 -71 34zM900 732h10q81 37 81 101v14h-20q-71 -78 -71 -95v-20zM951 637q64 0 151 -122l20 -7v7l-101 230h-10q-60 -72 -60 -88v-20z M1001 318q81 0 81 -40v-21h51v7q-112 113 -112 129h-10q0 -75 -10 -75zM1345 759l10 47h20v-88h-20q0 5 -10 41z" />
<glyph unicode="x" horiz-adv-x="1010" d="M0 465v181q0 105 171 133h54q54 0 163 -38q94 286 216 286h63q34 0 45 -114q0 -40 -54 -105q9 -81 9 -124q-18 -3 -18 -19q343 -194 343 -420q0 -12 -27 -76h-27q-27 0 -82 -38q-15 9 -36 9q-29 -95 -99 -95h-18q-53 0 -171 143q-27 0 -45 -181q-36 0 -63 -29l-325 77 q-45 49 -45 85v48q45 131 45 162v38q0 11 -99 77zM63 522l36 -10l27 48l-45 38h-9l-9 -48v-28zM162 255h9q45 79 45 95v10h-9q-45 -69 -45 -96v-9zM180 121h9q27 6 27 77v9h-9q-27 -58 -27 -76v-10zM180 512l9 -47h9q12 0 45 47l-54 19zM216 -250q29 143 109 143 q36 -15 36 -29q-38 -162 -73 -162h-18q-54 23 -54 48zM270 417h9v19h-9v-19zM541 264q29 -19 54 -19q20 0 45 86q-57 45 -72 48zM649 179l18 -10q36 40 36 76v19h-18q-36 -12 -36 -85zM685 121h36q54 23 54 39l-27 19h-9q0 -48 -54 -48v-10z" />
<glyph unicode="y" horiz-adv-x="868" d="M0 647v117q0 54 119 138h43q80 0 273 -111q9 0 9 6q46 222 128 222q93 0 145 -59q-103 -213 -103 -365l9 -33v-33q0 -230 94 -307q17 -52 17 -65v-33q0 -64 -111 -78q-71 -46 -171 -46q-230 167 -230 523v13q-38 32 -103 32q-33 53 -93 53zM68 699q0 -37 43 -46 q34 35 34 59v13q-17 0 -68 39l-9 -32v-33zM145 1006q14 59 94 59h26q119 -72 119 -91v-14q0 -13 -17 -13h-26q-42 0 -42 13q-32 -13 -69 -13q-85 17 -85 59zM188 608h8l51 -7q52 51 52 65l-43 20h-9q-22 0 -59 -78zM290 444h17q103 142 103 177q-10 0 -26 6 q-94 -24 -94 -130v-53zM316 346q2 -13 17 -13q85 115 85 157v7h-8q-94 -116 -94 -151zM350 235q10 -49 34 -52q60 124 60 157l-9 39q-85 -78 -85 -137v-7zM418 124l26 -13h8q34 67 34 92q-12 26 -25 26q0 -22 -43 -105zM486 72h9q46 0 68 26v13q-8 20 -51 20q0 -8 -26 -59z M666 608q77 209 145 209q76 -22 76 -85q0 -13 -93 -59q-50 -98 -77 -98h-9q-42 15 -42 33zM794 751q17 0 17 13h-17v-13z" />
<glyph unicode="z" horiz-adv-x="727" d="M0 220v53q0 70 81 184q0 42 66 185l-28 -9h-5q-20 41 -71 71q-32 61 -32 123v18q0 88 54 88v52q0 79 65 79h6q29 0 108 -79q30 -8 49 -8t256 61q65 -18 65 -88v-9q-35 -38 -49 -114q-21 -149 -212 -493v-8q186 87 266 87q109 0 109 -61q5 -16 5 -35v-9 q-52 -123 -141 -123q-332 -106 -396 -185q-185 20 -185 97q-11 66 -11 123zM49 809h5q9 0 22 53q-11 29 -11 53h-5q-11 -71 -11 -88v-18zM54 194q8 -88 49 -88h6l5 17q0 9 -5 9q2 57 27 97h-11q-36 -35 -71 -35zM65 282h11q120 41 120 149q-88 -72 -109 -79q0 -16 -22 -70z M130 440q108 75 180 255h-6q-174 -131 -174 -255zM168 704q44 -18 55 -18q69 66 114 88v9h-11q-68 -18 -114 -18h-22q0 -17 -22 -61zM266 1196q23 106 71 106q43 -21 43 -44v-62q84 -23 109 -44v-8q-14 -57 -27 -62q-196 0 -196 114zM587 633q0 96 108 176h27q33 -5 33 -26 q0 -86 -114 -158q-11 -41 -22 -44q-16 0 -32 52z" />
<glyph unicode="{" d="M305 543v90q12 55 116 189q21 0 79 435q32 242 42 245q0 40 176 89h23q50 0 61 -78q0 -35 4 -212q-9 -51 -18 -55h-61q-69 0 -69 -112q-42 -244 -42 -791q0 -190 74 -190q130 -36 130 -89q0 -55 -9 -55l28 -168q0 -111 -158 -111v11l-9 -11h-28q-62 0 -93 100 q-50 59 -93 323q-36 301 -102 301zM885 1457l5 67v34h9v-168h-9q0 51 -5 67z" />
<glyph unicode="|" d="M460 -216q12 439 16 750q-4 211 -4 403v91q0 586 52 586q44 -34 44 -220q0 -103 -8 -201q4 -282 4 -494q0 -976 -24 -1116l-20 18h-36q-13 0 -24 183z" />
<glyph unicode="}" d="M284 1450q0 194 42 194q38 37 78 37q100 0 133 -207q33 0 33 -585q4 -68 51 -146q6 -30 6 -49q-9 -134 -33 -134q-23 0 -33 -353q3 -151 3 -158q0 -93 -66 -268q-75 -122 -145 -122v12l-6 -12h-9q-3 0 -3 12l-6 -12h-3q-24 67 -24 85v12q0 232 24 232q102 0 102 219 q3 105 3 268l-3 49q0 12 3 12q-14 719 -27 719q-2 0 -18 12q-60 -12 -84 -12q-12 60 -18 195z" />
<glyph unicode="~" d="M104 665v6q0 39 82 54q118 118 336 118q20 0 255 -41h33q24 0 65 17q74 -7 74 -53q-20 -83 -197 -83l-57 6h-189q-106 0 -205 -59q-66 -11 -66 -24q-131 10 -131 59z" />
<glyph unicode="&#xa1;" horiz-adv-x="672" />
<glyph unicode="&#xa2;" horiz-adv-x="1139" d="M0 609v48q0 233 264 415q-128 222 -144 280q96 46 96 58q123 -12 143 -19q12 0 372 58q203 0 203 -97q0 -30 -95 -164h12q215 -46 215 -135q-97 -126 -120 -126q-431 -52 -431 -125q-60 -28 -60 -126q0 -65 108 -135h60q130 0 347 39q192 0 192 -68v-29q0 -118 -120 -155 q-96 0 -96 -19q168 -192 168 -232q-72 -48 -84 -48q-15 0 -120 10q-63 0 -203 -20v10q-37 -10 -180 -29q-12 0 -12 10l-60 -10h-24q-72 61 -72 106q0 31 120 145v10q-479 44 -479 348z" />
<glyph unicode="&#xa3;" d="M0 146v27q0 38 144 106q82 91 82 345q0 62 -31 452v13q0 191 266 318q40 27 113 27q215 0 215 -146v-53q0 -35 -143 -67h-31q-9 0 -82 27h-10q-121 0 -144 -239q11 -26 11 -40h10q29 0 143 53h52q61 -42 61 -146v-26q0 -107 -215 -160l-10 -26v-186q0 -58 -21 -106h10 l533 119q39 -10 72 -106l-51 -40l10 -26q-13 -27 -225 -107q-118 -79 -564 -159q-195 0 -195 146z" />
<glyph unicode="&#xa4;" d="M133 1077q0 33 150 60h40q34 0 161 -50q7 0 261 50q110 -7 110 -90v-20q-70 -305 -70 -381q0 -41 60 -181q0 -70 -80 -100l-341 70h-20q-128 -60 -171 -60q-70 20 -70 80q22 0 70 211q-18 19 -30 250q-70 94 -70 161zM284 716q0 -28 9 -56q16 -59 57 -100q41 -40 99 -57 q29 -8 58 -8t58 8q58 17 99 57q40 41 57 99q9 29 9 58t-9 58q-17 58 -57 99q-41 40 -100 57q-29 8 -58 8t-58 -9q-58 -17 -98 -56q-39 -40 -56 -98q-10 -30 -10 -60zM434 746q0 -70 50 -70q53 0 90 130q-17 70 -40 70q-88 0 -100 -130z" />
<glyph unicode="&#xa5;" horiz-adv-x="1262" d="M0 444v29q0 52 335 69v50q0 22 -12 39q12 17 12 39v60l-12 19l-25 -10h-13q-217 0 -260 99q0 79 285 79v148q0 118 199 118h173q137 0 161 -148v-79q49 20 137 20q208 0 236 -128q-54 -89 -162 -89q-49 10 -86 10q-112 -6 -112 -30v-167h12q83 0 199 20v-10q21 10 149 19 q74 -63 74 -69v-10q0 -134 -434 -157v-10q25 -157 25 -197q0 -46 -174 -99q-103 -59 -186 -59h-12q-137 0 -137 177q0 10 13 10l-13 50v98l-12 20q-49 -20 -137 -20h-49q-174 16 -174 109z" />
<glyph unicode="&#xa6;" d="M427 371h160v-789h-160v789zM427 789v789h160v-789h-160z" />
<glyph unicode="&#xa7;" d="M170 1130q0 148 89 237q82 79 216 86q8 1 17 1h3q66 0 163 -16.5t97 -41.5v-194h-51q-5 81 -80 132q-70 47 -149 51h-15q-78 0 -125 -44.5t-47 -117.5q0 -132 287 -269q149 -67 204.5 -143.5t55.5 -187.5q0 -171 -101 -282q-47 -39 -99 -64q108 -56 154 -118 q55 -77 55 -187q0 -171 -101 -283q-124 -102 -277 -105v1q-6 -1 -13 -1h-3q-66 0 -163 16.5t-97 41.5v194h51q5 -81 80 -132q68 -45 145 -50q113 6 185 69q72 64 72 165q0 125 -316 276q-123 64 -175.5 137t-52.5 177q0 148 89 237q67 65 170 82l-40 19q-123 64 -175.5 137 t-52.5 177zM297 571q0 -123 248 -250q56 16 97 53q73 65 73 166q0 5 -1 10h-2q-1 14 -4 27q-22 61 -113 127q-59 29 -126 29q-78 0 -125 -44.5t-47 -117.5z" />
<glyph unicode="&#xa8;" horiz-adv-x="1024" d="M209 1263q0 13 14 26l71 72q13 12 25 12q11 0 27 -14l69 -73q10 -14 10 -25q0 -13 -12 -27l-69 -75q-17 -17 -25 -17q-14 0 -25 12l-76 86q-9 12 -9 23zM574 1263q0 13 14 26l71 72q13 12 25 12q11 0 27 -13l69 -74q10 -14 10 -25q0 -13 -12 -26l-69 -76q-17 -17 -25 -17 q-14 0 -25 12l-76 87q-9 11 -9 22z" />
<glyph unicode="&#xa9;" horiz-adv-x="1674" d="M0 748q0 479 465 648q224 60 395 60q331 0 566 -435q34 0 91 -333q-21 -238 -212 -506q-194 -162 -294 -162q-160 -20 -202 -20q-457 0 -728 405q-74 165 -81 343zM233 728q0 -382 445 -495l121 -11q351 0 465 294q24 132 51 172q-18 25 -61 273q-145 303 -415 303 q0 -61 -91 -61q-6 31 -81 31h-10q-292 0 -404 -364q-20 -97 -20 -142zM293 688v20q0 318 304 425l151 20q334 -27 334 -71v-50l-10 -51q14 -1 40 -51q-10 -75 -40 -111l-51 10h-10q-44 0 -232 -50v-10q0 -53 242 -102l31 -40v-10q0 -34 -31 -71l11 -91q-80 -50 -233 -71 q-367 0 -496 233z" />
<glyph unicode="&#xaa;" horiz-adv-x="648" />
<glyph unicode="&#xab;" horiz-adv-x="944" d="M174 479l342 303h14v-37l-205 -266l205 -266v-37h-14zM487 479l342 303h14v-37l-205 -266l205 -266v-37h-14z" />
<glyph unicode="&#xac;" d="M87 667v100h840v-491l-1 -1h-98v392h-741z" />
<glyph unicode="&#xad;" horiz-adv-x="670" d="M116 437v83q0 29 41 29h356q41 0 41 -29v-83q0 -28 -40 -28h-358q-40 0 -40 28z" />
<glyph unicode="&#xae;" horiz-adv-x="1674" d="M0 818q78 187 143 403q302 299 662 299q421 0 741 -481l26 -221l-13 -26l13 -77q0 -26 -26 -26l13 -26v-65q0 -250 -455 -559q-292 -39 -363 -39h-117q-221 0 -520 377q-104 177 -104 441zM160 718q0 -137 51 -259t148 -219q98 -96 219 -147t256 -51q137 0 259.5 50.5 t219.5 145.5q97 98 149 221.5t52 258.5q0 134 -52 259.5t-145 219.5q-96 96 -220 147.5t-258 51.5q-137 0 -262 -51.5t-220 -147.5t-146 -219.5t-51 -259.5zM403 831v182q8 0 143 143q82 65 195 65q298 -39 298 -247q0 -7 -39 -130q72 -53 182 -194v-78q-77 -69 -182 -104 h-26q-71 0 -208 130q0 -195 -103 -195l-65 -13q-195 169 -195 441zM741 935h13q25 0 25 26v39h-25q0 -43 -13 -65z" />
<glyph unicode="&#xaf;" horiz-adv-x="670" />
<glyph unicode="&#xb0;" horiz-adv-x="674" d="M43 1128q0 220 256 308h115q167 0 218 -256v-39q0 -205 -282 -256h-38q-231 62 -231 179zM286 1115q4 -25 26 -25h51q39 13 39 77q-20 51 -39 51h-38q-39 -8 -39 -103z" />
<glyph unicode="&#xb1;" d="M175 890q0 68 163 94h9v43q0 114 138 129q0 9 25 9h18q60 -58 60 -103v-43l103 17v-9l17 9h52q69 -58 69 -112q0 -41 -232 -60q8 -86 8 -129v-69q0 -22 -69 -34h-26q-129 109 -129 180l-60 -8q-146 0 -146 86zM184 417q0 97 172 111q328 69 430 69q86 -37 86 -103v-17 q0 -69 -129 -69q-194 -17 -353 -43v9l-17 -9h-164q-14 0 -25 52z" />
<glyph unicode="&#xb2;" />
<glyph unicode="&#xb3;" />
<glyph unicode="&#xb4;" horiz-adv-x="1024" d="M374 1142q59 248 96 248q11 3 56 8q30 0 92 -48q52 -13 52 -52v-4q-55 -71 -96 -176l-24 -12l8 -32q-55 -56 -60 -56q-78 0 -116 100q-8 16 -8 24zM418 1150h4q44 26 44 60h-8q-40 -26 -40 -52v-8zM422 1114q28 -28 36 -28q20 12 28 12q-23 27 -44 32q-18 -8 -20 -16z M438 1234h4q56 23 56 60v8q-60 -40 -60 -68zM462 1310h4q18 12 44 20q4 22 4 36q-9 0 -16 4q-36 -16 -36 -60zM482 1058h8q8 0 8 8v4h-8q-8 -1 -8 -8v-4z" />
<glyph unicode="&#xb5;" horiz-adv-x="1180" />
<glyph unicode="&#xb6;" horiz-adv-x="1024" d="M0 1023v15q0 284 398 418l55 16q206 0 206 -217h14q0 201 151 201h27q69 0 97 -542h-14q27 -328 96 -790q-24 -70 -96 -124q-179 0 -179 294l-41 481l-27 -16q41 -403 41 -620q-25 -139 -110 -139q-151 0 -151 263v388l-14 108l-68 -15h-69q-224 0 -316 279zM759 1054 q16 -84 16 -140h15v47q-15 81 -15 155h-16v-62z" />
<glyph unicode="&#xb7;" horiz-adv-x="508" d="M104 649v66q0 147 177 155q111 0 133 -177q-67 -144 -155 -144q-108 0 -155 100z" />
<glyph unicode="&#xb8;" horiz-adv-x="1024" d="M360 -290q85 -52 152 -52q66 0 94.5 21.5t28.5 66.5t-49 64q-40 16 -102 16q-16 0 -34 -2l48 176h63l-37 -104q32 4 62 5q86 0 134 -40.5t48 -113.5q0 -76 -58.5 -120.5t-160.5 -44.5q-109 0 -189 32v96z" />
<glyph unicode="&#xb9;" />
<glyph unicode="&#xba;" horiz-adv-x="718" />
<glyph unicode="&#xbb;" horiz-adv-x="944" d="M101 176v37l205 266l-205 266v37h14l342 -303l-342 -303h-14zM414 176v37l205 266l-205 266v37h14l342 -303l-342 -303h-14z" />
<glyph unicode="&#xbc;" horiz-adv-x="1708" />
<glyph unicode="&#xbd;" horiz-adv-x="1964" />
<glyph unicode="&#xbe;" horiz-adv-x="1708" />
<glyph unicode="&#xbf;" horiz-adv-x="748" />
<glyph unicode="&#xc0;" horiz-adv-x="1540" />
<glyph unicode="&#xc1;" horiz-adv-x="1540" />
<glyph unicode="&#xc2;" horiz-adv-x="1540" />
<glyph unicode="&#xc3;" horiz-adv-x="1540" />
<glyph unicode="&#xc4;" horiz-adv-x="1540" />
<glyph unicode="&#xc5;" horiz-adv-x="1540" />
<glyph unicode="&#xc6;" horiz-adv-x="2118" />
<glyph unicode="&#xc7;" horiz-adv-x="1399" />
<glyph unicode="&#xc8;" horiz-adv-x="1151" />
<glyph unicode="&#xc9;" horiz-adv-x="1151" />
<glyph unicode="&#xca;" horiz-adv-x="1151" />
<glyph unicode="&#xcb;" horiz-adv-x="1151" />
<glyph unicode="&#xcc;" horiz-adv-x="657" />
<glyph unicode="&#xcd;" horiz-adv-x="657" />
<glyph unicode="&#xce;" horiz-adv-x="657" />
<glyph unicode="&#xcf;" horiz-adv-x="657" />
<glyph unicode="&#xd0;" horiz-adv-x="1518" />
<glyph unicode="&#xd1;" horiz-adv-x="1554" />
<glyph unicode="&#xd2;" horiz-adv-x="1614" />
<glyph unicode="&#xd3;" horiz-adv-x="1614" />
<glyph unicode="&#xd4;" horiz-adv-x="1614" />
<glyph unicode="&#xd5;" horiz-adv-x="1614" />
<glyph unicode="&#xd6;" horiz-adv-x="1614" />
<glyph unicode="&#xd7;" d="M161 470l247 247l-247 248l99 98l247 -247l248 247l98 -99l-247 -247l247 -247l-99 -99l-247 247l-247 -247z" />
<glyph unicode="&#xd8;" horiz-adv-x="1614" />
<glyph unicode="&#xd9;" horiz-adv-x="1501" />
<glyph unicode="&#xda;" horiz-adv-x="1501" />
<glyph unicode="&#xdb;" horiz-adv-x="1501" />
<glyph unicode="&#xdc;" horiz-adv-x="1501" />
<glyph unicode="&#xdd;" horiz-adv-x="1233" />
<glyph unicode="&#xde;" horiz-adv-x="1120" />
<glyph unicode="&#xdf;" horiz-adv-x="1251" />
<glyph unicode="&#xe0;" horiz-adv-x="922" />
<glyph unicode="&#xe1;" horiz-adv-x="922" />
<glyph unicode="&#xe2;" horiz-adv-x="922" />
<glyph unicode="&#xe3;" horiz-adv-x="922" />
<glyph unicode="&#xe4;" horiz-adv-x="922" />
<glyph unicode="&#xe5;" horiz-adv-x="922" />
<glyph unicode="&#xe6;" horiz-adv-x="1454" />
<glyph unicode="&#xe7;" horiz-adv-x="905" />
<glyph unicode="&#xe8;" horiz-adv-x="909" />
<glyph unicode="&#xe9;" horiz-adv-x="909" />
<glyph unicode="&#xea;" horiz-adv-x="909" />
<glyph unicode="&#xeb;" horiz-adv-x="909" />
<glyph unicode="&#xec;" horiz-adv-x="514" />
<glyph unicode="&#xed;" horiz-adv-x="514" />
<glyph unicode="&#xee;" horiz-adv-x="514" />
<glyph unicode="&#xef;" horiz-adv-x="514" />
<glyph unicode="&#xf0;" horiz-adv-x="1139" />
<glyph unicode="&#xf1;" horiz-adv-x="1108" />
<glyph unicode="&#xf2;" horiz-adv-x="1010" />
<glyph unicode="&#xf3;" horiz-adv-x="1010" />
<glyph unicode="&#xf4;" horiz-adv-x="1010" />
<glyph unicode="&#xf5;" horiz-adv-x="1010" />
<glyph unicode="&#xf6;" horiz-adv-x="1010" />
<glyph unicode="&#xf7;" d="M87 647v140h839l1 -1v-139h-840zM382 377q0 15 16 31l82 84q15 14 29 14q13 0 31 -16l80 -86q12 -16 12 -29q0 -15 -14 -31l-80 -88q-20 -20 -29 -20q-16 0 -29 14l-88 101q-10 13 -10 26zM382 1070q0 15 16 31l82 84q15 14 29 14q13 0 31 -16l80 -86q12 -16 12 -29 q0 -15 -14 -31l-80 -88q-20 -20 -29 -20q-16 0 -29 14l-88 101q-10 13 -10 26z" />
<glyph unicode="&#xf8;" horiz-adv-x="1010" />
<glyph unicode="&#xf9;" horiz-adv-x="1059" />
<glyph unicode="&#xfa;" horiz-adv-x="1059" />
<glyph unicode="&#xfb;" horiz-adv-x="1059" />
<glyph unicode="&#xfc;" horiz-adv-x="1059" />
<glyph unicode="&#xfd;" horiz-adv-x="868" />
<glyph unicode="&#xfe;" horiz-adv-x="1010" />
<glyph unicode="&#xff;" horiz-adv-x="868" />
<glyph unicode="&#x2c6;" horiz-adv-x="1024" d="M221 1079l232 355h118l232 -355h-58l-233 216l-233 -216h-58z" />
<glyph unicode="&#x2dc;" horiz-adv-x="1024" d="M234 1132q19 106 68 158.5t129 52.5q46 -1 113 -24q64 -23 112 -23h4q36 0 58 20t36 66h54q-20 -103 -68.5 -154t-126.5 -51h-4q-50 0 -113 23q-66 24 -114 24q-39 0 -60.5 -20.5t-33.5 -71.5h-54z" />
<glyph unicode="&#x2000;" horiz-adv-x="947" />
<glyph unicode="&#x2001;" horiz-adv-x="1894" />
<glyph unicode="&#x2002;" horiz-adv-x="947" />
<glyph unicode="&#x2003;" horiz-adv-x="1894" />
<glyph unicode="&#x2004;" horiz-adv-x="631" />
<glyph unicode="&#x2005;" horiz-adv-x="473" />
<glyph unicode="&#x2006;" horiz-adv-x="315" />
<glyph unicode="&#x2007;" horiz-adv-x="315" />
<glyph unicode="&#x2008;" horiz-adv-x="236" />
<glyph unicode="&#x2009;" horiz-adv-x="378" />
<glyph unicode="&#x200a;" horiz-adv-x="105" />
<glyph unicode="&#x2010;" horiz-adv-x="670" d="M116 437v83q0 29 41 29h356q41 0 41 -29v-83q0 -28 -40 -28h-358q-40 0 -40 28z" />
<glyph unicode="&#x2011;" horiz-adv-x="670" d="M116 437v83q0 29 41 29h356q41 0 41 -29v-83q0 -28 -40 -28h-358q-40 0 -40 28z" />
<glyph unicode="&#x2012;" horiz-adv-x="670" d="M116 437v83q0 29 41 29h356q41 0 41 -29v-83q0 -28 -40 -28h-358q-40 0 -40 28z" />
<glyph unicode="&#x2013;" horiz-adv-x="1108" d="M47 484v8q0 31 48 36h12q529 24 695 24h12q196 0 263 -64q0 -32 -252 -32q-109 -11 -550 -20l-24 4q-65 -4 -108 -4h-36q-60 17 -60 48z" />
<glyph unicode="&#x2014;" horiz-adv-x="2048" d="M-15 498v8q0 31 96 36h24q1064 24 1397 24h24q395 0 530 -64q0 -32 -506 -32q-220 -11 -1107 -20l-49 4q-130 -4 -216 -4h-73q-120 17 -120 48z" />
<glyph unicode="&#x2018;" horiz-adv-x="557" d="M186 1233q0 109 71 226.5t139 117.5v-43q-73 -43 -87 -190q0 -119 129 -161v-42l-119 -125q-44 0 -88.5 65.5t-44.5 151.5z" />
<glyph unicode="&#x2019;" horiz-adv-x="557" d="M119 1410v42l119 125q44 0 88.5 -65.5t44.5 -151.5q0 -109 -71 -226.5t-139 -117.5v43q73 43 87 190q0 119 -129 161z" />
<glyph unicode="&#x201a;" horiz-adv-x="557" d="M119 114v42l119 125q44 0 88.5 -65.5t44.5 -151.5q0 -109 -71 -226.5t-139 -117.5v43q73 43 87 190q0 119 -129 161z" />
<glyph unicode="&#x201c;" horiz-adv-x="910" d="M186 1233q0 109 71 226.5t139 117.5v-43q-73 -43 -87 -190q0 -119 129 -161v-42l-119 -125q-44 0 -88.5 65.5t-44.5 151.5zM539 1233q0 109 71 226.5t139 117.5v-43q-73 -43 -87 -190q0 -119 129 -161v-42l-119 -125q-44 0 -88.5 65.5t-44.5 151.5z" />
<glyph unicode="&#x201d;" horiz-adv-x="910" d="M119 1410v42l119 125q44 0 88.5 -65.5t44.5 -151.5q0 -109 -71 -226.5t-139 -117.5v43q73 43 87 190q0 119 -129 161zM472 1410v42l119 125q44 0 88.5 -65.5t44.5 -151.5q0 -109 -71 -226.5t-139 -117.5v43q73 43 87 190q0 119 -129 161z" />
<glyph unicode="&#x201e;" horiz-adv-x="910" d="M119 114v42l119 125q44 0 88.5 -65.5t44.5 -151.5q0 -109 -71 -226.5t-139 -117.5v43q73 43 87 190q0 119 -129 161zM472 114v42l119 125q44 0 88.5 -65.5t44.5 -151.5q0 -109 -71 -226.5t-139 -117.5v43q73 43 87 190q0 119 -129 161z" />
<glyph unicode="&#x2022;" horiz-adv-x="1024" d="M216 718q0 123 87 209t210 86q122 0 208.5 -86.5t86.5 -208.5t-87.5 -209.5t-209.5 -87.5q-123 0 -209 87t-86 210z" />
<glyph unicode="&#x2026;" horiz-adv-x="2048" d="M129 136q0 15 16 31l82 84q15 14 29 14q13 0 31 -16l80 -86q12 -16 12 -29q0 -15 -14 -31l-80 -88q-20 -20 -29 -20q-16 0 -29 14l-88 101q-10 13 -10 26zM812 136q0 15 16 31l82 84q15 14 29 14q13 0 31 -16l80 -86q12 -16 12 -29q0 -15 -14 -31l-80 -88 q-20 -20 -29 -20q-16 0 -29 14l-88 101q-10 13 -10 26zM1495 136q0 15 16 31l82 84q15 14 29 14q13 0 31 -16l80 -86q12 -16 12 -29q0 -15 -14 -31l-80 -88q-20 -20 -29 -20q-16 0 -29 14l-88 101q-10 13 -10 26z" />
<glyph unicode="&#x202f;" horiz-adv-x="378" />
<glyph unicode="&#x2039;" horiz-adv-x="631" d="M174 479l342 303h14v-37l-205 -266l205 -266v-37h-14z" />
<glyph unicode="&#x203a;" horiz-adv-x="631" d="M101 176v37l205 266l-205 266v37h14l342 -303l-342 -303h-14z" />
<glyph unicode="&#x205f;" horiz-adv-x="473" />
<glyph unicode="&#x20ac;" d="M-44 653l17 60h87v29q0 16 1 31h-71l17 60h58q14 145 76 281q81 178 226 274t298 96q43 0 87 -8q40 -10 82 -29q8 -6 16 -6q20 0 34 45h41l84 -281l-40 -1q-49 134 -138 178q-43 22 -81 32v3q-50 16 -101 16q-17 0 -34 -2q-120 -12 -226 -113.5t-157 -273.5 q-32 -104 -39 -211h706l-17 -60h-692q0 -30 2 -60h674l-17 -60h-652q17 -158 83 -298q74 -157 193 -236q102 -68 216 -69q186 3 256 91q74 91 74 185h48v-143q0 -70 -111 -127q-105 -54 -267 -56q-181 0 -325.5 98t-223.5 274q-62 135 -76 281h-108z" />
<glyph unicode="&#x2122;" horiz-adv-x="1497" d="M525 1186q10 119 57 119h33q26 -24 72 -47q60 104 95 104q52 0 62 -124q0 -39 4 -42q0 -5 -4 -5l9 -71q-17 -15 -33 -15h-10q-38 29 -38 114v34q-26 -27 -52 -76l-10 -5q-31 5 -80 47h-5q0 -10 -5 -19q5 -9 5 -14t-5 -5l5 -23v-24q0 -26 -19 -38h-29q-33 23 -33 52v10 l5 23q-8 5 -24 5zM820 1381v10q13 38 166 52q5 0 5 -5l48 5h19q33 -24 33 -38q0 -34 -114 -48v-47q0 -11 5 -19q0 -5 -5 -5q9 -81 24 -171h-5l5 -10v-14q0 -24 4 -71q-18 -15 -42 -15q-42 0 -53 305q-4 0 -4 19q4 8 4 19h-24q-43 0 -66 33z" />
<glyph unicode="&#x25fc;" horiz-adv-x="1025" d="M0 0v1025h1025v-1025h-1025z" />
</font>
</defs>
</svg>
